<svg width="174" height="60" viewBox="0 0 174 60" fill="none" xmlns="http://www.w3.org/2000/svg">
<rect width="174" height="60" rx="30" fill="#FFC709"/>
<path d="M50.976 24.384C49.744 24.384 48.8 24.76 48.144 25.512C47.488 26.264 47.16 27.328 47.16 28.704C47.16 30.096 47.52 31.168 48.24 31.92C48.976 32.672 49.96 33.048 51.192 33.048C51.848 33.048 52.4 32.96 52.848 32.784C53.312 32.608 53.752 32.408 54.168 32.184C54.44 32.408 54.648 32.68 54.792 33C54.952 33.304 55.032 33.664 55.032 34.08C55.032 34.736 54.664 35.296 53.928 35.76C53.208 36.208 52.104 36.432 50.616 36.432C49.544 36.432 48.536 36.28 47.592 35.976C46.648 35.672 45.824 35.208 45.12 34.584C44.416 33.944 43.856 33.144 43.44 32.184C43.04 31.208 42.84 30.048 42.84 28.704C42.84 27.456 43.032 26.36 43.416 25.416C43.816 24.456 44.352 23.648 45.024 22.992C45.712 22.336 46.512 21.84 47.424 21.504C48.336 21.168 49.312 21 50.352 21C51.824 21 52.96 21.24 53.76 21.72C54.576 22.2 54.984 22.816 54.984 23.568C54.984 23.984 54.88 24.344 54.672 24.648C54.464 24.952 54.224 25.192 53.952 25.368C53.536 25.096 53.088 24.864 52.608 24.672C52.144 24.48 51.6 24.384 50.976 24.384ZM68.7263 30.168C68.7263 31.16 68.5743 32.048 68.2703 32.832C67.9663 33.6 67.5343 34.248 66.9743 34.776C66.4303 35.304 65.7743 35.704 65.0063 35.976C64.2383 36.248 63.3823 36.384 62.4383 36.384C61.4943 36.384 60.6383 36.24 59.8703 35.952C59.1023 35.664 58.4383 35.256 57.8783 34.728C57.3343 34.184 56.9103 33.528 56.6063 32.76C56.3023 31.992 56.1503 31.128 56.1503 30.168C56.1503 29.224 56.3023 28.368 56.6063 27.6C56.9103 26.832 57.3343 26.184 57.8783 25.656C58.4383 25.112 59.1023 24.696 59.8703 24.408C60.6383 24.12 61.4943 23.976 62.4383 23.976C63.3823 23.976 64.2383 24.128 65.0063 24.432C65.7743 24.72 66.4303 25.136 66.9743 25.68C67.5343 26.208 67.9663 26.856 68.2703 27.624C68.5743 28.392 68.7263 29.24 68.7263 30.168ZM60.3263 30.168C60.3263 31.144 60.5103 31.896 60.8783 32.424C61.2623 32.936 61.7903 33.192 62.4622 33.192C63.1343 33.192 63.6463 32.928 63.9983 32.4C64.3663 31.872 64.5503 31.128 64.5503 30.168C64.5503 29.208 64.3663 28.472 63.9983 27.96C63.6303 27.432 63.1103 27.168 62.4383 27.168C61.7663 27.168 61.2463 27.432 60.8783 27.96C60.5103 28.472 60.3263 29.208 60.3263 30.168ZM78.1088 28.608C78.1088 28.112 77.9648 27.752 77.6768 27.528C77.4048 27.288 77.0288 27.168 76.5488 27.168C76.2288 27.168 75.9088 27.208 75.5888 27.288C75.2848 27.368 75.0208 27.488 74.7968 27.648V35.976C74.6368 36.024 74.3808 36.072 74.0288 36.12C73.6928 36.168 73.3408 36.192 72.9728 36.192C72.6208 36.192 72.3008 36.168 72.0128 36.12C71.7408 36.072 71.5088 35.976 71.3168 35.832C71.1248 35.688 70.9728 35.496 70.8608 35.256C70.7648 35 70.7168 34.672 70.7168 34.272V27.072C70.7168 26.64 70.8048 26.288 70.9808 26.016C71.1728 25.744 71.4288 25.496 71.7488 25.272C72.2928 24.888 72.9728 24.576 73.7888 24.336C74.6208 24.096 75.5408 23.976 76.5488 23.976C78.3568 23.976 79.7488 24.376 80.7248 25.176C81.7008 25.96 82.1888 27.056 82.1888 28.464V35.976C82.0288 36.024 81.7728 36.072 81.4208 36.12C81.0848 36.168 80.7328 36.192 80.3648 36.192C80.0128 36.192 79.6928 36.168 79.4048 36.12C79.1328 36.072 78.9008 35.976 78.7088 35.832C78.5168 35.688 78.3648 35.496 78.2528 35.256C78.1568 35 78.1088 34.672 78.1088 34.272V28.608ZM84.7569 24.336C84.7569 23.52 84.8929 22.824 85.1649 22.248C85.4529 21.656 85.8369 21.176 86.3169 20.808C86.7969 20.424 87.3569 20.144 87.9969 19.968C88.6529 19.792 89.3489 19.704 90.0849 19.704C91.2689 19.704 92.1409 19.864 92.7009 20.184C93.2609 20.488 93.5409 21.016 93.5409 21.768C93.5409 22.088 93.4689 22.376 93.3249 22.632C93.1969 22.888 93.0529 23.08 92.8929 23.208C92.5889 23.128 92.2689 23.064 91.9329 23.016C91.6129 22.952 91.2369 22.92 90.8049 22.92C90.1169 22.92 89.5809 23.04 89.1969 23.28C88.8129 23.504 88.6209 23.904 88.6209 24.48V25.248H92.5569C92.6529 25.424 92.7409 25.648 92.8209 25.92C92.9169 26.176 92.9649 26.464 92.9649 26.784C92.9649 27.344 92.8369 27.752 92.5809 28.008C92.3409 28.248 92.0129 28.368 91.5969 28.368H88.8369V35.976C88.6769 36.024 88.4209 36.072 88.0689 36.12C87.7329 36.168 87.3809 36.192 87.0129 36.192C86.6609 36.192 86.3409 36.168 86.0529 36.12C85.7809 36.072 85.5489 35.976 85.3569 35.832C85.1649 35.688 85.0129 35.496 84.9009 35.256C84.8049 35 84.7569 34.672 84.7569 34.272V24.336ZM94.8609 21.096C94.8609 20.488 95.0609 19.976 95.4609 19.56C95.8769 19.144 96.4209 18.936 97.0929 18.936C97.7649 18.936 98.3009 19.144 98.7009 19.56C99.1169 19.976 99.3249 20.488 99.3249 21.096C99.3249 21.704 99.1169 22.216 98.7009 22.632C98.3009 23.048 97.7649 23.256 97.0929 23.256C96.4209 23.256 95.8769 23.048 95.4609 22.632C95.0609 22.216 94.8609 21.704 94.8609 21.096ZM99.1329 35.976C98.9569 36.008 98.6929 36.048 98.3409 36.096C98.0049 36.16 97.6609 36.192 97.3089 36.192C96.9569 36.192 96.6369 36.168 96.3489 36.12C96.0769 36.072 95.8449 35.976 95.6529 35.832C95.4609 35.688 95.3089 35.496 95.1969 35.256C95.1009 35 95.0529 34.672 95.0529 34.272V24.504C95.2289 24.472 95.4849 24.432 95.8209 24.384C96.1729 24.32 96.5249 24.288 96.8769 24.288C97.2289 24.288 97.5409 24.312 97.8129 24.36C98.1009 24.408 98.3409 24.504 98.5329 24.648C98.7249 24.792 98.8689 24.992 98.9649 25.248C99.0769 25.488 99.1329 25.808 99.1329 26.208V35.976ZM105.805 35.976C105.645 36.024 105.389 36.072 105.037 36.12C104.701 36.168 104.349 36.192 103.981 36.192C103.629 36.192 103.309 36.168 103.021 36.12C102.749 36.072 102.517 35.976 102.325 35.832C102.133 35.688 101.981 35.496 101.869 35.256C101.773 35 101.725 34.672 101.725 34.272V27.072C101.725 26.704 101.789 26.392 101.917 26.136C102.061 25.864 102.261 25.624 102.517 25.416C102.773 25.208 103.085 25.024 103.453 24.864C103.837 24.688 104.245 24.536 104.677 24.408C105.109 24.28 105.557 24.184 106.021 24.12C106.485 24.04 106.949 24 107.413 24C108.181 24 108.789 24.152 109.237 24.456C109.685 24.744 109.909 25.224 109.909 25.896C109.909 26.12 109.877 26.344 109.813 26.568C109.749 26.776 109.669 26.968 109.573 27.144C109.237 27.144 108.893 27.16 108.541 27.192C108.189 27.224 107.845 27.272 107.509 27.336C107.173 27.4 106.853 27.472 106.549 27.552C106.261 27.616 106.013 27.696 105.805 27.792V35.976ZM116.949 23.976C117.605 23.976 118.245 24.072 118.869 24.264C119.509 24.44 120.061 24.712 120.525 25.08C121.005 24.76 121.541 24.496 122.133 24.288C122.741 24.08 123.469 23.976 124.317 23.976C124.925 23.976 125.517 24.056 126.093 24.216C126.685 24.376 127.205 24.632 127.653 24.984C128.117 25.32 128.485 25.776 128.757 26.352C129.029 26.912 129.165 27.6 129.165 28.416V35.976C129.005 36.024 128.749 36.072 128.397 36.12C128.061 36.168 127.709 36.192 127.341 36.192C126.989 36.192 126.669 36.168 126.381 36.12C126.109 36.072 125.877 35.976 125.685 35.832C125.493 35.688 125.341 35.496 125.229 35.256C125.133 35 125.085 34.672 125.085 34.272V28.536C125.085 28.056 124.949 27.712 124.677 27.504C124.405 27.28 124.037 27.168 123.573 27.168C123.349 27.168 123.109 27.224 122.853 27.336C122.597 27.432 122.405 27.536 122.277 27.648C122.293 27.712 122.301 27.776 122.301 27.84C122.301 27.888 122.301 27.936 122.301 27.984V35.976C122.125 36.024 121.861 36.072 121.509 36.12C121.173 36.168 120.829 36.192 120.477 36.192C120.125 36.192 119.805 36.168 119.517 36.12C119.245 36.072 119.013 35.976 118.821 35.832C118.629 35.688 118.477 35.496 118.365 35.256C118.269 35 118.221 34.672 118.221 34.272V28.536C118.221 28.056 118.069 27.712 117.765 27.504C117.477 27.28 117.125 27.168 116.709 27.168C116.421 27.168 116.173 27.216 115.965 27.312C115.757 27.392 115.581 27.472 115.437 27.552V35.976C115.277 36.024 115.021 36.072 114.669 36.12C114.333 36.168 113.981 36.192 113.613 36.192C113.261 36.192 112.941 36.168 112.653 36.12C112.381 36.072 112.149 35.976 111.957 35.832C111.765 35.688 111.613 35.496 111.501 35.256C111.405 35 111.357 34.672 111.357 34.272V27.024C111.357 26.592 111.445 26.248 111.621 25.992C111.813 25.736 112.069 25.496 112.389 25.272C112.933 24.888 113.605 24.576 114.405 24.336C115.221 24.096 116.069 23.976 116.949 23.976Z" fill="#1D2557"/>
</svg>
