<svg width="40" height="40" viewBox="0 0 40 40" fill="none" xmlns="http://www.w3.org/2000/svg">
<g clip-path="url(#clip0_1_1842)">
<rect width="40" height="40" rx="20" fill="#FEECCF"/>
<path fill-rule="evenodd" clip-rule="evenodd" d="M23.1984 14.916C23.6791 14.4661 24.4262 14.4661 24.9069 14.916C24.9197 14.928 24.9365 14.9447 24.996 15.0042C25.0555 15.0637 25.0722 15.0805 25.0842 15.0933C25.5341 15.574 25.5341 16.3211 25.0842 16.8018C25.0722 16.8146 25.0555 16.8315 24.996 16.8909L17.2734 24.6135C16.8731 25.0138 16.7631 25.1157 16.6414 25.1863C16.5197 25.2569 16.3767 25.3019 15.8305 25.4508L14.0689 25.9313L14.5494 24.1697C14.6983 23.6235 14.7433 23.4805 14.8139 23.3588C14.8845 23.2371 14.9864 23.1271 15.3867 22.7268L23.1093 15.0042C23.1687 14.9447 23.1856 14.928 23.1984 14.916ZM25.9319 13.8209C24.8745 12.8312 23.2308 12.8312 22.1734 13.8209C22.14 13.8522 22.104 13.8881 22.0573 13.9348L22.0486 13.9435L14.3261 21.6661L14.2714 21.7208C13.9509 22.0408 13.6978 22.2936 13.5166 22.6059C13.3353 22.9182 13.2414 23.2634 13.1225 23.7004L13.1022 23.775L12.2764 26.8028C12.2056 27.0625 12.2794 27.3402 12.4697 27.5305C12.66 27.7208 12.9377 27.7946 13.1974 27.7238L16.2252 26.898L16.2998 26.8777L16.2998 26.8777C16.7368 26.7588 17.082 26.6649 17.3943 26.4836C17.7066 26.3024 17.9594 26.0493 18.2794 25.7288L18.3341 25.6741L26.0567 17.9516L26.0654 17.9428C26.1121 17.8962 26.148 17.8602 26.1793 17.8268C27.169 16.7695 27.169 15.1257 26.1793 14.0683C26.148 14.0349 26.1121 13.9989 26.0654 13.9523L26.0567 13.9435L26.048 13.9349C26.0013 13.8882 25.9653 13.8522 25.9319 13.8209ZM22.25 26.0002C21.8358 26.0002 21.5 26.336 21.5 26.7502C21.5 27.1644 21.8358 27.5002 22.25 27.5002H26.75C27.1642 27.5002 27.5 27.1644 27.5 26.7502C27.5 26.336 27.1642 26.0002 26.75 26.0002H22.25Z" fill="black"/>
</g>
<defs>
<clipPath id="clip0_1_1842">
<rect width="40" height="40" rx="20" fill="white"/>
</clipPath>
</defs>
</svg>
