<svg width="109" height="90" viewBox="0 0 109 90" fill="none" xmlns="http://www.w3.org/2000/svg">
<rect x="22.5" y="22.5" width="64" height="45" rx="22.5" stroke="white" stroke-width="45"/>
<rect x="9" y="9" width="91" height="74" rx="37" fill="url(#paint0_linear_1_6084)"/>
<rect x="9" y="9" width="91" height="74" rx="37" stroke="#FDE29D" stroke-width="6"/>
<path d="M46.5731 45.089H49.2159C49.4495 45.089 49.6736 45.1848 49.8388 45.3552C50.004 45.5257 50.0968 45.7569 50.0968 45.9979C50.0968 46.239 50.004 46.4702 49.8388 46.6406C49.6736 46.8111 49.4495 46.9068 49.2159 46.9068H46.5731V49.6335C46.5731 49.8746 46.4803 50.1058 46.3151 50.2762C46.1499 50.4467 45.9258 50.5424 45.6922 50.5424C45.4586 50.5424 45.2345 50.4467 45.0693 50.2762C44.9041 50.1058 44.8113 49.8746 44.8113 49.6335V46.9068H42.1685C41.9349 46.9068 41.7108 46.8111 41.5456 46.6406C41.3804 46.4702 41.2876 46.239 41.2876 45.9979C41.2876 45.7569 41.3804 45.5257 41.5456 45.3552C41.7108 45.1848 41.9349 45.089 42.1685 45.089H44.8113V42.3623C44.8113 42.1213 44.9041 41.8901 45.0693 41.7196C45.2345 41.5492 45.4586 41.4534 45.6922 41.4534C45.9258 41.4534 46.1499 41.5492 46.3151 41.7196C46.4803 41.8901 46.5731 42.1213 46.5731 42.3623V45.089ZM65.0725 42.3623C65.0725 42.8444 64.8869 43.3068 64.5565 43.6477C64.2261 43.9886 63.7779 44.1801 63.3107 44.1801C62.8434 44.1801 62.3952 43.9886 62.0648 43.6477C61.7344 43.3068 61.5488 42.8444 61.5488 42.3623C61.5488 41.8802 61.7344 41.4178 62.0648 41.0769C62.3952 40.736 62.8434 40.5445 63.3107 40.5445C63.7779 40.5445 64.2261 40.736 64.5565 41.0769C64.8869 41.4178 65.0725 41.8802 65.0725 42.3623ZM65.0725 49.6335C65.0725 50.1156 64.8869 50.578 64.5565 50.9189C64.2261 51.2598 63.7779 51.4513 63.3107 51.4513C62.8434 51.4513 62.3952 51.2598 62.0648 50.9189C61.7344 50.578 61.5488 50.1156 61.5488 49.6335C61.5488 49.1514 61.7344 48.6891 62.0648 48.3482C62.3952 48.0072 62.8434 47.8157 63.3107 47.8157C63.7779 47.8157 64.2261 48.0072 64.5565 48.3482C64.8869 48.6891 65.0725 49.1514 65.0725 49.6335ZM68.5962 45.9979C68.5962 46.2367 68.5507 46.4731 68.4621 46.6937C68.3736 46.9142 68.2439 47.1147 68.0802 47.2835C67.9166 47.4523 67.7224 47.5862 67.5086 47.6776C67.2949 47.769 67.0657 47.816 66.8343 47.816C66.6029 47.816 66.3738 47.769 66.16 47.6776C65.9463 47.5862 65.752 47.4523 65.5884 47.2835C65.4248 47.1147 65.2951 46.9142 65.2065 46.6937C65.118 46.4731 65.0725 46.2367 65.0725 45.9979C65.0726 45.5159 65.2582 45.0536 65.5886 44.7127C65.919 44.3719 66.3671 44.1804 66.8343 44.1804C67.3016 44.1804 67.7497 44.3719 68.0801 44.7127C68.4105 45.0536 68.5961 45.5159 68.5962 45.9979ZM61.5488 45.9979C61.5488 46.2367 61.5033 46.4731 61.4148 46.6937C61.3262 46.9142 61.1965 47.1147 61.0329 47.2835C60.8693 47.4523 60.675 47.5862 60.4613 47.6776C60.2475 47.769 60.0184 47.816 59.787 47.816C59.5556 47.816 59.3264 47.769 59.1127 47.6776C58.8989 47.5862 58.7047 47.4523 58.5411 47.2835C58.3774 47.1147 58.2477 46.9142 58.1592 46.6937C58.0706 46.4731 58.0251 46.2367 58.0251 45.9979C58.0252 45.5159 58.2108 45.0536 58.5412 44.7127C58.8716 44.3719 59.3197 44.1804 59.787 44.1804C60.2542 44.1804 60.7023 44.3719 61.0327 44.7127C61.3631 45.0536 61.5487 45.5159 61.5488 45.9979ZM63.3107 36C69.4419 36 74.0614 41.7897 72.7876 48.1302C72.0054 52.013 68.9116 55.1069 65.1165 55.825C63.6373 56.1158 62.1125 56.0434 60.6654 55.6136C59.2183 55.1838 57.8895 54.4087 56.7865 53.3509C56.117 52.7129 55.3119 52.3602 54.4997 52.3602C53.6875 52.3602 52.8876 52.7056 52.2322 53.3346C50.4582 55.0453 48.1204 55.9966 45.6922 55.9958C44.3397 55.9956 43.0022 55.7034 41.7657 55.138C40.5292 54.5725 39.4211 53.7463 38.5126 52.7126C37.6041 51.6788 36.9153 50.4604 36.4905 49.1355C36.0657 47.8107 35.9143 46.4088 36.0461 45.0199C36.5218 39.8937 40.944 36 46.071 36H63.3107ZM63.3107 37.8178H46.071C41.8302 37.8178 38.185 41.0244 37.8009 45.1908C37.6922 46.3276 37.8154 47.4752 38.1624 48.5599C38.5095 49.6446 39.0728 50.6423 39.8161 51.4888C40.5595 52.3354 41.4663 53.012 42.4783 53.4751C43.4903 53.9383 44.5851 54.1777 45.6922 54.178C47.6762 54.1782 49.586 53.3996 51.0341 52.0003C52.0067 51.0732 53.2276 50.5424 54.4997 50.5424C55.7752 50.5424 56.998 51.0787 57.9811 52.0149C58.8833 52.8814 59.971 53.5162 61.1558 53.8674C62.3405 54.2186 63.5889 54.2765 64.7994 54.0363C67.8914 53.4527 70.4267 50.9169 71.061 47.7594C72.1093 42.5532 68.3319 37.8178 63.3107 37.8178Z" fill="white"/>
<defs>
<linearGradient id="paint0_linear_1_6084" x1="54.5" y1="6" x2="54.5" y2="86" gradientUnits="userSpaceOnUse">
<stop stop-color="#FFD25B"/>
<stop offset="1" stop-color="#FFC709"/>
</linearGradient>
</defs>
</svg>
