<svg width="55" height="55" viewBox="0 0 55 55" fill="none" xmlns="http://www.w3.org/2000/svg">
<circle cx="27.5" cy="27.5" r="27.5" fill="#FFC709"/>
<path d="M19.4141 29H37.9999C38.1311 29.0001 38.2611 28.9744 38.3823 28.9242C38.5036 28.874 38.6139 28.8004 38.7067 28.7075C38.7996 28.6146 38.8733 28.5043 38.9236 28.3829C38.974 28.2615 38.9999 28.1314 39 27.9999C38.9999 27.8685 38.974 27.7383 38.9236 27.6169C38.8733 27.4955 38.7996 27.3852 38.7067 27.2923C38.6139 27.1994 38.5036 27.1258 38.3823 27.0756C38.2611 27.0254 38.1311 26.9997 37.9999 26.9998H19.4141L25.7071 20.707C25.7999 20.6142 25.8736 20.504 25.9238 20.3827C25.9741 20.2613 26 20.1313 26 19.9999C26 19.8686 25.9741 19.7385 25.9238 19.6172C25.8736 19.4958 25.7999 19.3856 25.7071 19.2929C25.5194 19.1053 25.2651 19 25 19C24.7349 19 24.4806 19.1053 24.2929 19.2929L16.2929 27.2929C16.2 27.3856 16.1264 27.4958 16.0761 27.6172C16.0259 27.7385 16 27.8686 16 27.9999C16 28.1313 16.0259 28.2613 16.0761 28.3827C16.1264 28.504 16.2 28.6142 16.2929 28.707L24.2926 36.707C24.4803 36.8946 24.7346 37 24.9998 37C25.265 37 25.5194 36.8946 25.7071 36.707C25.7999 36.6142 25.8736 36.504 25.9238 36.3827C25.9741 36.2613 26 36.1313 26 35.9999C26 35.8686 25.9741 35.7385 25.9238 35.6172C25.8736 35.4958 25.7999 35.3856 25.7071 35.2929L19.4144 29H19.4141Z" fill="white"/>
</svg>
