<svg width="28" height="28" viewBox="0 0 28 28" fill="none" xmlns="http://www.w3.org/2000/svg">
<path d="M10.5327 10.5455H7.00822V6.43357C7.00822 5.53846 7.18538 4.70396 7.53969 3.93007C7.894 3.15618 8.38351 2.47552 9.00822 1.88811C9.63293 1.3007 10.3695 0.839161 11.218 0.503497C12.0665 0.167832 12.9942 -1.82292e-08 14.0012 0C14.8963 0 15.7588 0.167832 16.5886 0.503497C17.4185 0.839161 18.1551 1.3007 18.7984 1.88811C19.4418 2.47552 19.9546 3.15618 20.3369 3.93007C20.7192 4.70396 20.9103 5.53846 20.9103 6.43357V10.5455H17.5257V7.21678C17.5257 6.04196 17.1994 5.13287 16.5467 4.48951C15.894 3.84615 15.0082 3.52448 13.8893 3.52448C12.8823 3.52448 12.0712 3.84615 11.4558 4.48951C10.8404 5.13287 10.5327 6.04196 10.5327 7.21678V10.5455ZM22.5886 12.2238C23.0921 12.2238 23.5257 12.4056 23.8893 12.7692C24.253 13.1329 24.4348 13.5664 24.4348 14.0699V22.7413C24.4348 23.2448 24.3462 23.7156 24.1691 24.1538C23.9919 24.5921 23.7495 24.9744 23.4418 25.3007C23.1341 25.627 22.7705 25.8835 22.3509 26.0699C21.9313 26.2564 21.4698 26.3497 20.9663 26.3497H6.84039C6.33689 26.3497 5.88002 26.2564 5.46976 26.0699C5.0595 25.8835 4.70985 25.6364 4.42081 25.3287C4.13177 25.021 3.90799 24.662 3.74948 24.2517C3.59097 23.8415 3.51172 23.4033 3.51172 22.9371V14.0699C3.51172 13.5664 3.68887 13.1329 4.04319 12.7692C4.3975 12.4056 4.8264 12.2238 5.3299 12.2238H7.00822H10.5327H17.5257H20.9103H22.5886Z" fill="#1D2557"/>
</svg>
