<svg width="40" height="40" viewBox="0 0 40 40" fill="none" xmlns="http://www.w3.org/2000/svg">
<g clip-path="url(#clip0_2_188)">
<path fill-rule="evenodd" clip-rule="evenodd" d="M26.4233 10.6728C25.407 10.5405 24.0719 10.539 22.1926 10.539L17.9535 10.539C16.0023 10.539 14.6161 10.5407 13.5645 10.6824C12.535 10.8212 11.9419 11.0815 11.5089 11.5157C11.0758 11.9499 10.8163 12.5446 10.6779 13.5769C10.5365 14.6313 10.5349 16.0211 10.5349 17.9775L10.535 26.1851C10.535 27.1066 10.537 27.7096 10.5976 28.1234C10.6262 28.3192 10.6602 28.4144 10.6813 28.4568C10.7278 28.4483 10.8241 28.4184 10.9975 28.3239C11.364 28.1242 11.8463 27.764 12.5815 27.211L12.9709 26.9182L13.0735 26.841C14.0567 26.1013 14.6919 25.6233 15.4417 25.3727C16.1915 25.1221 16.9857 25.1223 18.215 25.1225L18.3432 25.1226H22.1927C24.072 25.1226 25.4071 25.121 26.4233 24.9888C27.4191 24.8591 27.9974 24.6157 28.4242 24.2111C28.4694 24.1683 28.5134 24.1242 28.5561 24.0789C28.9596 23.651 29.2024 23.0711 29.3317 22.0727C29.4636 21.0537 29.4651 19.7151 29.4651 17.8308C29.4651 15.9464 29.4636 14.6078 29.3316 13.5889C29.2024 12.5904 28.9596 12.0105 28.5561 11.5826C28.5134 11.5373 28.4694 11.4932 28.4242 11.4504C27.9974 11.0458 27.419 10.8024 26.4233 10.6728ZM10.6453 28.4585C10.6457 28.4578 10.6507 28.4575 10.6588 28.4597C10.6489 28.4603 10.6449 28.4592 10.6453 28.4585ZM10.6924 28.4765C10.6991 28.4818 10.7018 28.4859 10.7015 28.4867C10.7012 28.4874 10.6979 28.4848 10.6924 28.4765ZM26.6209 9.14659C27.7794 9.29739 28.722 9.6148 29.4786 10.332C29.5447 10.3947 29.609 10.4591 29.6714 10.5254C30.3868 11.284 30.7034 12.2291 30.8538 13.3907C31 14.5203 31 15.9589 31 17.7751V17.8308V17.8864C31 19.7026 31 21.1412 30.8538 22.2708C30.7034 23.4324 30.3868 24.3775 29.6715 25.1361C29.609 25.2024 29.5447 25.2668 29.4786 25.3295C28.722 26.0467 27.7794 26.3641 26.6209 26.5149C25.4944 26.6616 24.0596 26.6616 22.2482 26.6615H22.1927H18.3432C16.9412 26.6615 16.4119 26.6707 15.9271 26.8327C15.4424 26.9947 15.0134 27.3059 13.8919 28.1494L13.5025 28.4422L13.4531 28.4793C12.781 28.9849 12.2081 29.4158 11.7304 29.6761C11.2461 29.94 10.6238 30.1608 9.99003 29.843C9.35622 29.5253 9.159 28.8937 9.07896 28.3469C9.00003 27.8076 9.00006 27.0895 9.0001 26.247L9.0001 26.1851L9 17.9775L9 17.9196V17.9196C8.99996 16.0341 8.99994 14.5406 9.15665 13.3718C9.31793 12.1689 9.65776 11.1953 10.4235 10.4275C11.1893 9.65969 12.1603 9.31893 13.36 9.15719C14.5257 9.00004 16.0152 9.00004 17.8957 9.00004L17.9535 9.00004L22.1926 9H22.2481H22.2482C24.0595 8.99997 25.4943 8.99995 26.6209 9.14659ZM24.1612 14.1299C24.5851 14.1299 24.9287 14.4744 24.9287 14.8994V15.8901H25.662H27.1628C27.5866 15.8901 27.9302 16.2346 27.9302 16.6596C27.9302 17.0846 27.5866 17.4291 27.1628 17.4291H26.2987C26.0823 18.3092 25.6109 19.4477 24.7624 20.4805C25.2351 20.8887 25.7454 21.1988 26.2677 21.3374C26.6774 21.4461 26.9216 21.8673 26.8132 22.2782C26.7047 22.689 26.2847 22.9339 25.8749 22.8251C25.0281 22.6004 24.2833 22.115 23.664 21.5615C23.0058 22.0829 22.2077 22.5247 21.2463 22.8175C20.8407 22.941 20.4121 22.7115 20.2889 22.3049C20.1657 21.8983 20.3946 21.4685 20.8002 21.345C21.5094 21.129 22.1071 20.8089 22.6078 20.4306C22.097 19.7853 21.7143 19.1434 21.4926 18.6857C21.3074 18.3034 21.4664 17.843 21.8476 17.6573C22.2289 17.4716 22.6881 17.631 22.8732 18.0133C23.0349 18.347 23.3216 18.8346 23.7055 19.3392C24.2025 18.6937 24.5216 18.0101 24.7066 17.4291H24.1612H21.0232C20.5994 17.4291 20.2558 17.0846 20.2558 16.6596C20.2558 16.2346 20.5994 15.8901 21.0232 15.8901H23.3938V14.8994C23.3938 14.4744 23.7374 14.1299 24.1612 14.1299ZM16.3107 13.1297C16.0035 12.2672 14.787 12.2672 14.4798 13.1297L13.0426 17.1645L12.1144 19.7705C11.9718 20.1707 12.1799 20.611 12.579 20.7539C12.9782 20.8969 13.4173 20.6883 13.5599 20.2881L14.3062 18.1928H16.4844L17.2307 20.2881C17.3733 20.6883 17.8124 20.8969 18.2116 20.7539C18.6107 20.611 18.8187 20.1707 18.6762 19.7705L17.748 17.1645L16.3107 13.1297ZM15.3953 15.1352L15.9362 16.6539H14.8544L15.3953 15.1352Z" fill="black"/>
</g>
<defs>
<clipPath id="clip0_2_188">
<rect width="40" height="40" rx="20" fill="white"/>
</clipPath>
</defs>
</svg>
