<svg width="53" height="12" viewBox="0 0 53 12" fill="none" xmlns="http://www.w3.org/2000/svg">
<path d="M3.81275 11.5217C3.42665 11.5217 3.03518 11.464 2.63836 11.3486C2.24153 11.2332 1.86615 11.06 1.51223 10.8292C1.16903 10.5878 0.863364 10.2835 0.595239 9.91625C0.327113 9.54898 0.1287 9.11351 0 8.60982L1.60875 7.98022C1.74818 8.53637 2.00022 8.99283 2.36487 9.34961C2.74024 9.69589 3.21751 9.86903 3.79666 9.86903C4.08623 9.86903 4.35972 9.82181 4.61712 9.72737C4.87452 9.62244 5.09439 9.48602 5.27671 9.31813C5.45904 9.13974 5.60383 8.92987 5.71107 8.68853C5.81833 8.44718 5.87195 8.1796 5.87195 7.88578C5.87195 7.59197 5.81833 7.32439 5.71107 7.08304C5.61455 6.8312 5.47512 6.61608 5.2928 6.43769C5.11047 6.25931 4.89061 6.12289 4.63321 6.02845C4.37581 5.92352 4.09696 5.87105 3.79666 5.87105C3.44273 5.87105 3.12098 5.94975 2.83141 6.10715C2.54183 6.25406 2.30052 6.44819 2.10747 6.68953L0.337838 5.91827L0.997427 0.503683H6.99808V2.09343H2.49357L2.09138 4.89517L2.1879 4.92665C2.42386 4.74826 2.69734 4.5961 3.00837 4.47018C3.31939 4.34426 3.70013 4.2813 4.15058 4.2813C4.61176 4.2813 5.05149 4.3705 5.46976 4.54888C5.89876 4.71678 6.27414 4.95813 6.59589 5.27293C6.91764 5.58773 7.17504 5.96549 7.36809 6.40621C7.56114 6.84694 7.65767 7.33488 7.65767 7.87004C7.65767 8.39471 7.56114 8.88265 7.36809 9.33387C7.17504 9.77459 6.90692 10.1576 6.56371 10.4829C6.22051 10.8082 5.81296 11.0653 5.34106 11.2542C4.87989 11.4325 4.37045 11.5217 3.81275 11.5217Z" fill="#222227"/>
<path d="M10.4481 11.3643C10.1049 11.3643 9.80996 11.2489 9.56328 11.0181C9.32733 10.7767 9.20936 10.4881 9.20936 10.1524C9.20936 9.81656 9.32733 9.528 9.56328 9.28665C9.80996 9.0453 10.1049 8.92463 10.4481 8.92463C10.7913 8.92463 11.0862 9.0453 11.3329 9.28665C11.5796 9.528 11.7029 9.81656 11.7029 10.1524C11.7029 10.4881 11.5796 10.7767 11.3329 11.0181C11.0862 11.2489 10.7913 11.3643 10.4481 11.3643ZM10.4481 5.83957C10.1049 5.83957 9.80996 5.72414 9.56328 5.49329C9.32733 5.25194 9.20936 4.96337 9.20936 4.62758C9.20936 4.2918 9.32733 4.00847 9.56328 3.77762C9.80996 3.53627 10.1049 3.4156 10.4481 3.4156C10.7913 3.4156 11.0862 3.53627 11.3329 3.77762C11.5796 4.00847 11.7029 4.2918 11.7029 4.62758C11.7029 4.96337 11.5796 5.25194 11.3329 5.49329C11.0862 5.72414 10.7913 5.83957 10.4481 5.83957Z" fill="#222227"/>
<path d="M15.837 11.2699V2.61285L13.7939 3.47856L13.1183 1.98325L16.3518 0.503683H17.6228V11.2699H15.837Z" fill="#222227"/>
<path d="M23.3225 11.5217C22.9364 11.5217 22.5503 11.4693 22.1642 11.3643C21.7781 11.2594 21.4135 11.0968 21.0703 10.8764C20.7378 10.6455 20.4375 10.357 20.1694 10.0107C19.9012 9.66441 19.6975 9.24992 19.558 8.76723L21.2311 8.0904C21.3813 8.65704 21.6387 9.09252 22.0033 9.39683C22.368 9.70114 22.8077 9.85329 23.3225 9.85329C23.5799 9.85329 23.8266 9.81132 24.0626 9.72737C24.3092 9.64342 24.5237 9.528 24.7061 9.38109C24.8884 9.22369 25.0332 9.0453 25.1404 8.84593C25.2477 8.63606 25.3013 8.4052 25.3013 8.15336C25.3013 7.90152 25.2423 7.67067 25.1243 7.4608C25.0171 7.25093 24.8669 7.07254 24.6739 6.92564C24.4808 6.77873 24.2502 6.6633 23.9821 6.57935C23.7247 6.49541 23.4459 6.45343 23.1456 6.45343H22.1964V4.83221H23.049C23.3064 4.83221 23.5424 4.80072 23.7569 4.73776C23.9821 4.66431 24.1805 4.56462 24.3521 4.4387C24.5237 4.31278 24.6578 4.15538 24.7543 3.9665C24.8508 3.76713 24.8991 3.54152 24.8991 3.28968C24.8991 2.85945 24.7382 2.52366 24.4165 2.28231C24.1055 2.03047 23.7086 1.90455 23.226 1.90455C22.9579 1.90455 22.7219 1.94128 22.5181 2.01473C22.3251 2.08818 22.1589 2.18787 22.0194 2.31379C21.88 2.43971 21.762 2.58137 21.6655 2.73877C21.5797 2.88568 21.51 3.03784 21.4564 3.19524L19.8154 2.51841C19.9012 2.26657 20.0353 2.00948 20.2176 1.74715C20.4 1.47432 20.6305 1.22773 20.9094 1.00737C21.1882 0.787004 21.5154 0.608616 21.8907 0.472202C22.2768 0.325295 22.7219 0.251841 23.226 0.251841C23.7408 0.251841 24.2127 0.325295 24.6417 0.472202C25.0707 0.619109 25.4407 0.823731 25.7517 1.08607C26.0628 1.3484 26.3041 1.65796 26.4757 2.01473C26.6473 2.37151 26.7331 2.75976 26.7331 3.1795C26.7331 3.4838 26.6902 3.76188 26.6044 4.01372C26.5293 4.26556 26.4221 4.49117 26.2826 4.69054C26.1432 4.87943 25.9877 5.04207 25.8161 5.17849C25.6445 5.3149 25.4675 5.43033 25.2852 5.52477V5.61921C25.5319 5.72414 25.7678 5.86056 25.9931 6.02845C26.2183 6.18585 26.4113 6.37473 26.5722 6.59509C26.7438 6.81546 26.8779 7.0673 26.9744 7.35062C27.0709 7.62345 27.1192 7.92251 27.1192 8.2478C27.1192 8.72001 27.0227 9.16073 26.8296 9.56997C26.6366 9.96872 26.3684 10.315 26.0252 10.6088C25.6928 10.8921 25.2959 11.1125 24.8348 11.2699C24.3736 11.4378 23.8695 11.5217 23.3225 11.5217Z" fill="#222227"/>
<path d="M32.4542 11.2699V0H36.4439C36.9587 0 37.4413 0.0839468 37.8918 0.251841C38.353 0.419735 38.7552 0.655836 39.0984 0.960145C39.4416 1.26445 39.7097 1.63172 39.9027 2.06195C40.1065 2.48169 40.2084 2.94864 40.2084 3.46282C40.2084 3.9665 40.1065 4.43346 39.9027 4.86369C39.7097 5.28342 39.4416 5.64544 39.0984 5.94975C38.7552 6.25406 38.353 6.49016 37.8918 6.65805C37.4413 6.82595 36.9587 6.9099 36.4439 6.9099H34.2721V11.2699H32.4542ZM36.4922 5.20997C36.7925 5.20997 37.0606 5.16275 37.2966 5.06831C37.5325 4.96337 37.7309 4.82696 37.8918 4.65906C38.0527 4.49117 38.176 4.30229 38.2618 4.09242C38.3476 3.88255 38.3905 3.67269 38.3905 3.46282C38.3905 3.24246 38.3476 3.02734 38.2618 2.81747C38.176 2.60761 38.0527 2.42397 37.8918 2.26657C37.7309 2.09868 37.5325 1.96226 37.2966 1.85733C37.0606 1.7524 36.7925 1.69993 36.4922 1.69993H34.2721V5.20997H36.4922Z" fill="#222227"/>
<path d="M41.7548 0H43.5727L47.3372 6.40621H47.4337L51.1982 0H53V11.2699H51.1982V5.14701L51.2947 3.2582H51.1982L47.9163 8.87741H46.8385L43.5727 3.2582H43.4762L43.5727 5.14701V11.2699H41.7548V0Z" fill="#222227"/>
</svg>
