<svg width="21" height="21" viewBox="0 0 21 21" fill="none" xmlns="http://www.w3.org/2000/svg">
<path fill-rule="evenodd" clip-rule="evenodd" d="M2.51884 5.14365C3.01112 4.65137 3.6788 4.37481 4.37499 4.37481H14.8749C15.5711 4.37481 16.2388 4.65137 16.7311 5.14365C17.2234 5.63593 17.4999 6.30361 17.4999 6.9998V7.14993C17.8656 7.27921 18.2016 7.48916 18.4811 7.76864C18.9734 8.26092 19.2499 8.9286 19.2499 9.62479V11.3748C19.2499 12.071 18.9734 12.7386 18.4811 13.2309C18.2016 13.5104 17.8656 13.7204 17.4999 13.8496V13.9998C17.4999 14.696 17.2234 15.3636 16.7311 15.8559C16.2388 16.3482 15.5711 16.6248 14.8749 16.6248H4.37499C3.6788 16.6248 3.01112 16.3482 2.51884 15.8559C2.02656 15.3636 1.75 14.696 1.75 13.9998V6.9998C1.75 6.30361 2.02656 5.63594 2.51884 5.14365ZM4.37499 6.12481C4.14292 6.12481 3.92037 6.21699 3.75627 6.38109C3.59218 6.54518 3.49999 6.76774 3.49999 6.9998V13.9998C3.49999 14.2318 3.59218 14.4544 3.75627 14.6185C3.92037 14.7826 4.14292 14.8748 4.37499 14.8748H14.8749C15.107 14.8748 15.3296 14.7826 15.4937 14.6185C15.6577 14.4544 15.7499 14.2318 15.7499 13.9998V13.1248C15.7499 12.6415 16.1417 12.2498 16.6249 12.2498C16.857 12.2498 17.0796 12.1576 17.2436 11.9935C17.4077 11.8294 17.4999 11.6068 17.4999 11.3748V9.62479C17.4999 9.39273 17.4077 9.17017 17.2436 9.00607C17.0796 8.84198 16.857 8.74979 16.6249 8.74979C16.1417 8.74979 15.7499 8.35804 15.7499 7.8748V6.9998C15.7499 6.76774 15.6577 6.54518 15.4937 6.38109C15.3296 6.21699 15.107 6.12481 14.8749 6.12481H4.37499ZM6.12498 7.8748C6.60823 7.8748 6.99998 8.26655 6.99998 8.74979V12.2498C6.99998 12.733 6.60823 13.1248 6.12498 13.1248C5.64173 13.1248 5.24998 12.733 5.24998 12.2498V8.74979C5.24998 8.26655 5.64173 7.8748 6.12498 7.8748ZM9.62496 7.8748C10.1082 7.8748 10.5 8.26655 10.5 8.74979V12.2498C10.5 12.733 10.1082 13.1248 9.62496 13.1248C9.14172 13.1248 8.74997 12.733 8.74997 12.2498V8.74979C8.74997 8.26655 9.14172 7.8748 9.62496 7.8748ZM13.1249 7.8748C13.6082 7.8748 13.9999 8.26655 13.9999 8.74979V12.2498C13.9999 12.733 13.6082 13.1248 13.1249 13.1248C12.6417 13.1248 12.25 12.733 12.25 12.2498V8.74979C12.25 8.26655 12.6417 7.8748 13.1249 7.8748Z" fill="#222227"/>
</svg>
