<svg width="21" height="21" viewBox="0 0 21 21" fill="none" xmlns="http://www.w3.org/2000/svg">
<path fill-rule="evenodd" clip-rule="evenodd" d="M10.1488 2.41451C10.4148 2.28453 10.7332 2.31258 10.9711 2.48697L16.0192 6.18662C16.2199 6.33374 16.3366 6.56574 16.3332 6.81092C16.3298 7.0561 16.2067 7.28492 16.0019 7.42665L11.5616 10.5001L16.0019 13.5736C16.2067 13.7153 16.3298 13.9442 16.3332 14.1893C16.3366 14.4345 16.2199 14.6665 16.0192 14.8136L10.9711 18.5133C10.7332 18.6877 10.4148 18.7157 10.1488 18.5857C9.88277 18.4558 9.71473 18.1901 9.71473 17.8994V11.7785L5.90584 14.4149C5.55195 14.6598 5.06185 14.5781 4.81117 14.2322C4.5605 13.8864 4.64417 13.4075 4.99807 13.1625L8.84451 10.5001L4.99807 7.83772C4.64417 7.59276 4.5605 7.11384 4.81117 6.76802C5.06185 6.4222 5.55195 6.34043 5.90584 6.58539L9.71473 9.2218V3.10084C9.71473 2.81019 9.88277 2.54449 10.1488 2.41451ZM11.2852 12.1895L14.2151 14.2175L11.2852 16.3647V12.1895ZM11.2852 8.81073V4.6355L14.2151 6.78276L11.2852 8.81073Z" fill="#222227"/>
</svg>
