<svg width="25" height="25" viewBox="0 0 25 25" fill="none" xmlns="http://www.w3.org/2000/svg">
<rect width="25" height="25" rx="12.5" fill="#1F105C"/>
<path d="M15.5729 11.9788C15.711 11.9788 15.8435 11.924 15.9412 11.8263C16.0389 11.7286 16.0938 11.5961 16.0938 11.458C16.0938 11.3199 16.0389 11.1874 15.9412 11.0897C15.8435 10.992 15.711 10.9372 15.5729 10.9372H13.9167L15.349 9.22363C15.4259 9.11685 15.4596 8.98486 15.4433 8.85424C15.4269 8.72361 15.3617 8.60404 15.2607 8.51956C15.1597 8.43509 15.0305 8.39199 14.899 8.39893C14.7676 8.40587 14.6436 8.46233 14.5521 8.55697L12.5573 10.9372H12.3854L10.3854 8.5153C10.3416 8.46263 10.2879 8.41911 10.2273 8.3872C10.1667 8.3553 10.1004 8.33564 10.0323 8.32935C9.89453 8.31665 9.7574 8.35919 9.65104 8.44759C9.54468 8.536 9.47779 8.66303 9.46509 8.80076C9.4524 8.93848 9.49493 9.0756 9.58333 9.18197L11.0365 10.9372H9.375C9.23687 10.9372 9.10439 10.992 9.00672 11.0897C8.90904 11.1874 8.85417 11.3199 8.85417 11.458C8.85417 11.5961 8.90904 11.7286 9.00672 11.8263C9.10439 11.924 9.23687 11.9788 9.375 11.9788H11.9792V13.5413H9.375C9.23687 13.5413 9.10439 13.5962 9.00672 13.6939C8.90904 13.7916 8.85417 13.924 8.85417 14.0622C8.85417 14.2003 8.90904 14.3328 9.00672 14.4305C9.10439 14.5281 9.23687 14.583 9.375 14.583H11.9792V16.6663C11.9792 16.8045 12.034 16.937 12.1317 17.0346C12.2294 17.1323 12.3619 17.1872 12.5 17.1872C12.6381 17.1872 12.7706 17.1323 12.8683 17.0346C12.966 16.937 13.0208 16.8045 13.0208 16.6663V14.583H15.5729C15.711 14.583 15.8435 14.5281 15.9412 14.4305C16.0389 14.3328 16.0938 14.2003 16.0938 14.0622C16.0938 13.924 16.0389 13.7916 15.9412 13.6939C15.8435 13.5962 15.711 13.5413 15.5729 13.5413H13.0208V11.9788H15.5729Z" fill="white"/>
</svg>
