<svg width="18" height="18" viewBox="0 0 18 18" fill="none" xmlns="http://www.w3.org/2000/svg">
<rect width="18" height="18" fill="#FFF8D3"/>
<path d="M9.75 14.25C9.75 13.8358 9.41421 13.5 9 13.5C8.58579 13.5 8.25 13.8358 8.25 14.25C8.25 14.6642 8.58579 15 9 15C9.41421 15 9.75 14.6642 9.75 14.25Z" fill="#292556"/>
<path d="M6 6.10306C6 4.38929 7.34315 3 9 3C10.6569 3 12 4.38929 12 6.10306C12 7.13788 11.5103 8.05439 10.7575 8.61817C10.3401 8.93078 9.83867 9.11656 9.48601 9.51087C9.05338 9.9946 8.99078 10.6065 9 11.25" stroke="#292556" stroke-width="1.5" stroke-linecap="round" stroke-linejoin="round"/>
</svg>
