<svg width="18" height="18" viewBox="0 0 18 18" fill="none" xmlns="http://www.w3.org/2000/svg">
<path fill-rule="evenodd" clip-rule="evenodd" d="M3.85127 1.39672C4.17079 1.0772 4.17079 0.55916 3.85127 0.23964C3.53175 -0.07988 3.0137 -0.07988 2.69418 0.23964L0.23964 2.69418C-0.07988 3.0137 -0.07988 3.53175 0.23964 3.85127C0.55916 4.17079 1.0772 4.17079 1.39672 3.85127L3.85127 1.39672ZM15.3058 0.23964C14.9863 -0.07988 14.4682 -0.07988 14.1487 0.23964C13.8292 0.55916 13.8292 1.0772 14.1487 1.39672L16.6033 3.85127C16.9228 4.17079 17.4408 4.17079 17.7604 3.85127C18.0799 3.53175 18.0799 3.0137 17.7604 2.69418L15.3058 0.23964ZM8.99998 3.27273C5.38503 3.27273 2.45453 6.20323 2.45453 9.81818C2.45453 13.4331 5.38503 16.3636 8.99998 16.3636C12.6149 16.3636 15.5454 13.4331 15.5454 9.81818C15.5454 6.20323 12.6149 3.27273 8.99998 3.27273ZM0.818167 9.81818C0.818167 5.29949 4.48129 1.63636 8.99998 1.63636C13.5187 1.63636 17.1818 5.29949 17.1818 9.81818C17.1818 14.3369 13.5187 18 8.99998 18C4.48129 18 0.818167 14.3369 0.818167 9.81818ZM9.00001 4.90909C9.45188 4.90909 9.81819 5.2754 9.81819 5.72727V9.38045L11.9083 10.7737C12.2843 11.0244 12.386 11.5323 12.1354 11.9083C11.8847 12.2843 11.3768 12.386 11.0008 12.1354L8.91032 10.742C8.68627 10.5925 8.50228 10.3898 8.37526 10.1523C8.24825 9.91488 8.18181 9.64974 8.18183 9.38045V5.72727C8.18183 5.2754 8.54814 4.90909 9.00001 4.90909Z" fill="#222227"/>
</svg>
