<svg width="18" height="13" viewBox="0 0 18 13" fill="none" xmlns="http://www.w3.org/2000/svg">
<path fill-rule="evenodd" clip-rule="evenodd" d="M4.93908 2.63763C6.19663 2.11519 7.54523 1.84712 8.90697 1.8489L8.90818 1.8489C11.7725 1.8489 14.3631 3.01179 16.2368 4.89348C16.5971 5.25526 17.1824 5.2565 17.5442 4.89625C17.906 4.536 17.9072 3.95067 17.547 3.58889C15.3406 1.37312 12.2843 0.000172857 8.90878 9.55046e-06L8.90938 1.03081e-05L8.90818 0.924454V9.48158e-06L8.90878 9.55046e-06C7.30298 -0.00200323 5.71269 0.314151 4.22976 0.930214C2.74664 1.54635 1.40031 2.45026 0.268552 3.58972C-0.0912406 3.95196 -0.0892567 4.53729 0.272983 4.89708C0.635222 5.25687 1.22055 5.25489 1.58034 4.89265C2.53997 3.92649 3.68153 3.16006 4.93908 2.63763ZM6.20776 5.8659C7.06099 5.50164 7.9793 5.31441 8.90703 5.31556H8.90933C9.83706 5.31441 10.7554 5.50164 11.6086 5.8659C12.4618 6.23017 13.2322 6.76388 13.8731 7.4347C14.2258 7.80387 14.8109 7.81724 15.1801 7.46456C15.5493 7.11188 15.5626 6.52671 15.21 6.15754C14.3962 5.30574 13.418 4.62803 12.3345 4.16549C11.2515 3.7031 10.0858 3.46537 8.90818 3.46667C7.73054 3.46537 6.56489 3.7031 5.48181 4.16549C4.39839 4.62803 3.42016 5.30574 2.6064 6.15754C2.25373 6.52671 2.26709 7.11188 2.63626 7.46456C3.00543 7.81724 3.59061 7.80387 3.94328 7.4347C4.58414 6.76388 5.35452 6.23017 6.20776 5.8659ZM8.90818 3.46667L8.90703 3.46668L8.90818 4.39112L8.90933 3.46668L8.90818 3.46667ZM7.50049 9.08527C7.94237 8.88502 8.422 8.78169 8.90714 8.78223L8.90818 8.78223C9.92995 8.78223 10.8461 9.23094 11.472 9.94428C11.8087 10.3281 12.3928 10.3662 12.7765 10.0295C13.1603 9.69275 13.1985 9.10867 12.8617 8.72489C11.9 7.62875 10.485 6.93349 8.9087 6.93334L8.90922 6.93334L8.90818 7.85779V6.93334H8.9087C8.15981 6.93258 7.41942 7.09212 6.73731 7.40125C6.05503 7.71045 5.44687 8.16214 4.9537 8.72595C4.61755 9.11024 4.65659 9.69426 5.04088 10.0304C5.42517 10.3665 6.00919 10.3275 6.34533 9.94322C6.66473 9.57807 7.05862 9.28553 7.50049 9.08527ZM10.1689 11.8444C10.1689 12.4826 9.65159 13 9.01339 13C8.37519 13 7.85783 12.4826 7.85783 11.8444C7.85783 11.2062 8.37519 10.6889 9.01339 10.6889C9.65159 10.6889 10.1689 11.2062 10.1689 11.8444Z" fill="#222227"/>
</svg>
