<svg width="14" height="14" viewBox="0 0 14 14" fill="none" xmlns="http://www.w3.org/2000/svg">
<path fill-rule="evenodd" clip-rule="evenodd" d="M14 1.0678C14 0.478068 13.5219 0 12.9322 0C12.3425 0 11.8644 0.478068 11.8644 1.0678V12.9322C11.8644 13.5219 12.3425 14 12.9322 14C13.5219 14 14 13.5219 14 12.9322V1.0678ZM6.05061 7.35569C6.05061 6.76597 5.57254 6.2879 4.98282 6.2879C4.39309 6.2879 3.91502 6.76597 3.91502 7.35569V12.932C3.91502 13.5217 4.39309 13.9998 4.98282 13.9998C5.57254 13.9998 6.05061 13.5217 6.05061 12.932V7.35569ZM1.0678 9.49152C1.65752 9.49152 2.13559 9.96959 2.13559 10.5593V12.9322C2.13559 13.5219 1.65752 14 1.0678 14C0.478068 14 0 13.5219 0 12.9322V10.5593C0 9.96959 0.478068 9.49152 1.0678 9.49152ZM10.0847 4.27112C10.0847 3.6814 9.60661 3.20333 9.01688 3.20333C8.42716 3.20333 7.94909 3.6814 7.94909 4.27112V12.9321C7.94909 13.5219 8.42716 13.9999 9.01688 13.9999C9.60661 13.9999 10.0847 13.5219 10.0847 12.9321V4.27112Z" fill="#222227"/>
</svg>
