<svg width="128" height="152" viewBox="0 0 128 152" fill="none" xmlns="http://www.w3.org/2000/svg">
<path d="M95.1649 13.7554C95.1649 4.3131 89.0419 1.79951 85.2275 0.763263C83.78 0.370024 82.2907 0.183983 80.7911 0.149207C62.2178 -0.281529 28.1397 0.377048 18.2769 0.209223C8.00124 0.0343748 -1.0211e-05 10.8098 3.45952e-07 15.2685C7.63735e-05 47.4723 0.62091 116.02 0.649876 130.717C0.678842 145.415 10.3236 151.295 15.8513 151.295C43.3197 152 101.086 152 111.94 152C123.366 152 127.746 141.058 127.146 134.091C127.079 106.736 127.576 50.6153 127.576 42.7939C127.576 35.4181 121.602 31.1384 117.971 30.1089C116.743 29.7609 115.438 29.8623 114.162 29.8505C110.87 29.8203 104.756 29.8278 103.813 29.6029C100.639 28.8458 95.1649 23.2413 95.1649 13.7554Z" fill="#B1DDE2"/>
</svg>
