<svg width="8" height="8" viewBox="0 0 8 8" fill="none" xmlns="http://www.w3.org/2000/svg">
<path d="M7.15765 0.841932L1.68417 0.841931C1.56122 0.841931 1.46017 0.802354 1.38102 0.724041C1.30271 0.644886 1.26313 0.543837 1.26313 0.420894C1.26107 0.364996 1.27046 0.309267 1.29073 0.257134C1.31101 0.205001 1.34173 0.157566 1.38102 0.117748C1.42084 0.0784622 1.46827 0.0477368 1.5204 0.0274628C1.57254 0.00718888 1.62827 -0.00220567 1.68417 -0.000142514L7.57868 -0.000141999C7.63458 -0.00220514 7.69031 0.00718941 7.74245 0.0274634C7.79458 0.0477373 7.84201 0.0784627 7.88183 0.117749C7.92112 0.157567 7.95184 0.205002 7.97212 0.257135C7.99239 0.309267 8.00178 0.364997 7.99972 0.420895L7.99972 6.31541C7.99972 6.43836 7.96014 6.53941 7.88183 6.61856C7.84201 6.65785 7.79458 6.68857 7.74245 6.70885C7.69031 6.72912 7.63458 6.73851 7.57868 6.73645C7.45574 6.73645 7.35469 6.69687 7.27554 6.61856C7.19722 6.53941 7.15765 6.43836 7.15765 6.31541L7.15765 0.841932ZM7.27554 0.117749C7.3578 0.0411355 7.46628 -0.00105276 7.57868 -0.000141999C7.63405 -0.000645124 7.68893 0.0102322 7.73992 0.0318151C7.79091 0.0533981 7.83692 0.0852273 7.87509 0.125327C7.91494 0.163481 7.94655 0.209387 7.96798 0.260219C7.98942 0.311051 8.00022 0.365732 7.99972 0.420895C7.99972 0.534575 7.96014 0.635624 7.88183 0.724041L0.7242 7.88167C0.641942 7.95828 0.533459 8.00047 0.421054 7.99956C0.36589 8.00006 0.311209 7.98926 0.260377 7.96782C0.209545 7.94639 0.163639 7.91478 0.125486 7.87493C0.0853855 7.83676 0.0535568 7.79075 0.0319738 7.73976C0.0103909 7.68877 -0.000486397 7.63389 1.67382e-05 7.57852C-0.000894001 7.46612 0.0412943 7.35764 0.117907 7.27538L7.27554 0.117749Z" fill="#B3B3B3"/>
</svg>
