<svg width="37" height="20" viewBox="0 0 37 20" fill="none" xmlns="http://www.w3.org/2000/svg">
<path d="M10.5731 9.08902H13.2159C13.4495 9.08902 13.6736 9.18478 13.8388 9.35523C14.004 9.52568 14.0968 9.75687 14.0968 9.99792C14.0968 10.239 14.004 10.4702 13.8388 10.6406C13.6736 10.8111 13.4495 10.9068 13.2159 10.9068H10.5731V13.6335C10.5731 13.8746 10.4803 14.1058 10.3151 14.2762C10.1499 14.4467 9.92584 14.5424 9.69221 14.5424C9.45857 14.5424 9.23451 14.4467 9.0693 14.2762C8.9041 14.1058 8.81129 13.8746 8.81129 13.6335V10.9068H6.16852C5.93488 10.9068 5.71082 10.8111 5.54561 10.6406C5.38041 10.4702 5.2876 10.239 5.2876 9.99792C5.2876 9.75687 5.38041 9.52568 5.54561 9.35523C5.71082 9.18478 5.93488 9.08902 6.16852 9.08902H8.81129V6.36232C8.81129 6.12126 8.9041 5.89008 9.0693 5.71962C9.23451 5.54917 9.45857 5.45341 9.69221 5.45341C9.92584 5.45341 10.1499 5.54917 10.3151 5.71962C10.4803 5.89008 10.5731 6.12126 10.5731 6.36232V9.08902ZM29.0725 6.36232C29.0725 6.84443 28.8869 7.30679 28.5565 7.6477C28.2261 7.9886 27.7779 8.18012 27.3106 8.18012C26.8434 8.18012 26.3952 7.9886 26.0648 7.6477C25.7344 7.30679 25.5488 6.84443 25.5488 6.36232C25.5488 5.8802 25.7344 5.41784 26.0648 5.07693C26.3952 4.73603 26.8434 4.54451 27.3106 4.54451C27.7779 4.54451 28.2261 4.73603 28.5565 5.07693C28.8869 5.41784 29.0725 5.8802 29.0725 6.36232ZM29.0725 13.6335C29.0725 14.1156 28.8869 14.578 28.5565 14.9189C28.2261 15.2598 27.7779 15.4513 27.3106 15.4513C26.8434 15.4513 26.3952 15.2598 26.0648 14.9189C25.7344 14.578 25.5488 14.1156 25.5488 13.6335C25.5488 13.1514 25.7344 12.6891 26.0648 12.3482C26.3952 12.0072 26.8434 11.8157 27.3106 11.8157C27.7779 11.8157 28.2261 12.0072 28.5565 12.3482C28.8869 12.6891 29.0725 13.1514 29.0725 13.6335ZM32.5962 9.99792C32.5962 10.2367 32.5507 10.4731 32.4622 10.6937C32.3736 10.9142 32.2439 11.1147 32.0802 11.2835C31.9166 11.4523 31.7224 11.5862 31.5086 11.6776C31.2949 11.769 31.0657 11.816 30.8343 11.816C30.6029 11.816 30.3738 11.769 30.16 11.6776C29.9463 11.5862 29.752 11.4523 29.5884 11.2835C29.4248 11.1147 29.2951 10.9142 29.2065 10.6937C29.118 10.4731 29.0725 10.2367 29.0725 9.99792C29.0726 9.51586 29.2582 9.05357 29.5886 8.71272C29.919 8.37188 30.3671 8.1804 30.8343 8.1804C31.3016 8.1804 31.7497 8.37188 32.0801 8.71272C32.4105 9.05357 32.5961 9.51586 32.5962 9.99792ZM25.5488 9.99792C25.5488 10.2367 25.5033 10.4731 25.4148 10.6937C25.3262 10.9142 25.1965 11.1147 25.0329 11.2835C24.8693 11.4523 24.675 11.5862 24.4613 11.6776C24.2475 11.769 24.0184 11.816 23.787 11.816C23.5556 11.816 23.3264 11.769 23.1127 11.6776C22.8989 11.5862 22.7047 11.4523 22.5411 11.2835C22.3774 11.1147 22.2477 10.9142 22.1592 10.6937C22.0706 10.4731 22.0251 10.2367 22.0251 9.99792C22.0252 9.51586 22.2108 9.05357 22.5412 8.71272C22.8716 8.37188 23.3197 8.1804 23.787 8.1804C24.2542 8.1804 24.7023 8.37188 25.0327 8.71272C25.3631 9.05357 25.5487 9.51586 25.5488 9.99792ZM27.3106 0C33.4419 0 38.0614 5.78971 36.7876 12.1302C36.0054 16.013 32.9116 19.1069 29.1165 19.825C27.6373 20.1158 26.1125 20.0434 24.6654 19.6136C23.2183 19.1838 21.8895 18.4087 20.7865 17.3509C20.117 16.7129 19.3119 16.3602 18.4997 16.3602C17.6875 16.3602 16.8876 16.7056 16.2322 17.3346C14.4582 19.0453 12.1204 19.9966 9.69221 19.9958C8.33971 19.9956 7.00221 19.7034 5.76572 19.138C4.52923 18.5725 3.42111 17.7463 2.5126 16.7126C1.60409 15.6788 0.9153 14.4604 0.490515 13.1355C0.0657291 11.8107 -0.0856502 10.4088 0.0461094 9.01994C0.521807 3.89374 4.94404 0 10.071 0H27.3106ZM27.3106 1.8178H10.071C5.83024 1.8178 2.18499 5.02441 1.80091 9.19082C1.69221 10.3276 1.81537 11.4752 2.16244 12.5599C2.50952 13.6446 3.07284 14.6423 3.81614 15.4888C4.55945 16.3354 5.46629 17.012 6.4783 17.4751C7.49032 17.9383 8.5851 18.1777 9.69221 18.178C11.6762 18.1782 13.586 17.3996 15.0341 16.0003C16.0067 15.0732 17.2276 14.5424 18.4997 14.5424C19.7752 14.5424 20.998 15.0787 21.9811 16.0149C22.8833 16.8814 23.971 17.5162 25.1558 17.8674C26.3405 18.2186 27.5889 18.2765 28.7994 18.0363C31.8914 17.4527 34.4267 14.9169 35.061 11.7594C36.1093 6.55318 32.3319 1.8178 27.3106 1.8178Z" fill="#81B365"/>
</svg>
