<svg width="23" height="23" viewBox="0 0 23 23" fill="none" xmlns="http://www.w3.org/2000/svg">
<path fill-rule="evenodd" clip-rule="evenodd" d="M13.4591 4.15537C14.2071 3.40629 15.4202 3.40584 16.1687 4.15434L18.5567 6.54237C19.2988 7.28449 19.3065 8.4859 18.574 9.23749L16.9832 10.8697L11.8652 5.75169L13.4591 4.15537ZM10.8495 6.76892L15.9798 11.8992L9.72559 18.316C9.18468 18.871 8.44281 19.1839 7.66814 19.1839L5.03067 19.1838C4.21338 19.1837 3.56067 18.5025 3.59505 17.6853L3.70828 14.9933C3.73856 14.2733 4.03778 13.591 4.54672 13.0813L10.8495 6.76892ZM13.6486 19.8182L13.7931 19.8328H19.66C20.0568 19.8328 20.3785 19.5109 20.3785 19.1138C20.3785 18.7167 20.0568 18.3948 19.66 18.3948H13.7931L13.6486 18.4094C13.3212 18.4765 13.0746 18.7663 13.0746 19.1138C13.0746 19.4613 13.3212 19.7511 13.6486 19.8182Z" fill="#2B3F6C"/>
</svg>
