<svg width="33" height="32" viewBox="0 0 33 32" fill="none" xmlns="http://www.w3.org/2000/svg">
<path d="M28.7301 11.808C28.6981 15.024 27.5621 17.568 25.8021 19.776C23.4501 22.752 20.6981 25.296 17.4661 27.344C16.9701 27.648 16.7621 27.648 16.2821 27.312C12.6821 24.928 9.49808 22.112 7.11408 18.512C5.57808 16.208 4.61808 13.648 5.14608 10.864C5.81808 7.26402 8.18608 4.73602 11.9781 4.46402C13.4821 4.35202 15.0661 4.80002 16.2501 5.92002C16.7301 6.36802 17.0021 6.32002 17.4981 5.92002C20.4421 3.56802 24.7781 4.27202 26.9701 7.28002C28.0581 8.76802 28.5861 10.352 28.7301 11.808Z" fill="#E84D3C"/>
</svg>
