<svg width="45" height="43" viewBox="0 0 45 43" fill="none" xmlns="http://www.w3.org/2000/svg">
<path d="M21.9401 5.37551C22.3287 4.72969 23.265 4.72968 23.6537 5.3755L27.845 12.34C27.9846 12.572 28.2124 12.7375 28.4762 12.7986L36.395 14.6326C37.1293 14.8027 37.4186 15.6931 36.9245 16.2623L31.5961 22.4006C31.4186 22.6051 31.3316 22.8729 31.355 23.1426L32.0578 31.2406C32.1229 31.9915 31.3655 32.5419 30.6714 32.2479L23.187 29.077C22.9376 28.9714 22.6561 28.9714 22.4068 29.077L14.9223 32.2479C14.2283 32.5419 13.4708 31.9915 13.536 31.2406L14.2388 23.1426C14.2622 22.8729 14.1752 22.6051 13.9977 22.4006L8.66924 16.2623C8.17513 15.6931 8.46446 14.8027 9.19878 14.6326L17.1176 12.7986C17.3814 12.7375 17.6091 12.572 17.7488 12.34L21.9401 5.37551Z" fill="#E0E0E0"/>
<path d="M22.7969 14.9518L24.4427 17.6865L27.5522 18.4067L25.4598 20.817L25.7358 23.9969L22.7969 22.7518L19.8579 23.9969L20.1339 20.817L18.0416 18.4067L21.1511 17.6865L22.7969 14.9518Z" fill="#E0E0E0"/>
<path d="M22.7969 14.9518L24.4427 17.6865L27.5522 18.4067L25.4598 20.817L25.7358 23.9969L22.7969 22.7518L19.8579 23.9969L20.1339 20.817L18.0416 18.4067L21.1511 17.6865L22.7969 14.9518Z" fill="#E0E0E0"/>
<path d="M22.7969 14.9518L24.4427 17.6865L27.5522 18.4067L25.4598 20.817L25.7358 23.9969L22.7969 22.7518L19.8579 23.9969L20.1339 20.817L18.0416 18.4067L21.1511 17.6865L22.7969 14.9518Z" fill="#E0E0E0"/>
<path d="M22.7969 14.9518L24.4427 17.6865L27.5522 18.4067L25.4598 20.817L25.7358 23.9969L22.7969 22.7518L19.8579 23.9969L20.1339 20.817L18.0416 18.4067L21.1511 17.6865L22.7969 14.9518Z" fill="#E0E0E0"/>
<path d="M22.7969 14.9517L24.4427 17.6864L27.5522 18.4066L25.4598 20.8169L25.7358 23.9967L22.7969 22.7517L19.8579 23.9967L20.1339 20.8169L18.0416 18.4066L21.1511 17.6864L22.7969 14.9517Z" fill="#E0E0E0"/>
</svg>
