<svg width="174" height="88" viewBox="0 0 174 88" fill="none" xmlns="http://www.w3.org/2000/svg">
<path d="M174 87C174 63.9262 164.834 41.7974 148.518 25.4817C132.203 9.16605 110.074 1.76256e-06 87 2.05357e-08C63.9262 -1.72149e-06 41.7974 9.16604 25.4817 25.4817C9.16605 41.7974 3.60207e-06 63.9262 1.1802e-07 87H21.75C21.75 69.6946 28.6245 53.098 40.8613 40.8613C53.098 28.6245 69.6946 21.75 87 21.75C104.305 21.75 120.902 28.6245 133.139 40.8613C145.375 53.098 152.25 69.6946 152.25 87H174Z" fill="#EA580C"/>
<path d="M44.8643 10.8844C31.2321 18.4309 19.8767 29.5 11.9848 42.9351C4.09279 56.3703 -0.0461622 71.6784 0.000388371 87.2599L21.7503 87.1949C21.7154 75.5088 24.8196 64.0277 30.7386 53.9513C36.6576 43.875 45.1741 35.5731 55.3982 29.9133L44.8643 10.8844Z" fill="#FED7AA"/>
<path d="M130.5 11.6558C117.307 4.03898 102.346 0.0197289 87.1123 7.24463e-05C71.8787 -0.019584 56.9069 3.96104 43.6946 11.5438L54.5209 30.4078C64.4302 24.7208 75.659 21.7353 87.0842 21.7501C98.5094 21.7648 109.73 24.7792 119.625 30.4918L130.5 11.6558Z" fill="#FB923C"/>
</svg>
