<svg width="36" height="36" viewBox="0 0 36 36" fill="none" xmlns="http://www.w3.org/2000/svg">
<path d="M30.15 13.8299C27.435 13.8299 26.325 11.9099 27.675 9.5549C28.455 8.1899 27.99 6.4499 26.625 5.6699L24.03 4.1849C22.845 3.4799 21.315 3.8999 20.61 5.0849L20.445 5.3699C19.095 7.7249 16.875 7.7249 15.51 5.3699L15.345 5.0849C14.67 3.8999 13.14 3.4799 11.955 4.1849L9.36 5.6699C7.995 6.4499 7.53 8.20491 8.31 9.56991C9.675 11.9099 8.565 13.8299 5.85 13.8299C4.29 13.8299 3 15.1049 3 16.6799V19.3199C3 20.8799 4.275 22.1699 5.85 22.1699C8.565 22.1699 9.675 24.0899 8.31 26.4449C7.53 27.8099 7.995 29.5499 9.36 30.3299L11.955 31.8149C13.14 32.5199 14.67 32.0999 15.375 30.9149L15.54 30.6299C16.89 28.2749 19.11 28.2749 20.475 30.6299L20.64 30.9149C21.345 32.0999 22.875 32.5199 24.06 31.8149L26.655 30.3299C28.02 29.5499 28.485 27.7949 27.705 26.4449C26.34 24.0899 27.45 22.1699 30.165 22.1699C31.725 22.1699 33.015 20.8949 33.015 19.3199V16.6799C33 15.1199 31.725 13.8299 30.15 13.8299ZM18 22.8749C15.315 22.8749 13.125 20.6849 13.125 17.9999C13.125 15.3149 15.315 13.1249 18 13.1249C20.685 13.1249 22.875 15.3149 22.875 17.9999C22.875 20.6849 20.685 22.8749 18 22.8749Z" fill="#66943C"/>
</svg>
