<svg width="144" height="163" viewBox="0 0 144 163" fill="none" xmlns="http://www.w3.org/2000/svg">
<path d="M103.538 18.7728C103.538 9.36079 97.4342 6.85526 93.632 5.82234C92.1891 5.43036 90.7046 5.24492 89.2098 5.21025C70.6961 4.7809 36.7272 5.43736 26.896 5.27008C16.6533 5.09579 8.67773 15.8367 8.67774 20.281C8.67782 52.3816 9.29666 120.709 9.32553 135.36C9.35441 150.01 18.9682 155.871 24.4783 155.871C51.8586 156.574 109.439 156.574 120.258 156.574C131.648 156.574 136.014 145.668 135.416 138.722C135.349 111.456 135.845 55.5145 135.845 47.7183C135.845 40.366 129.89 36.1001 126.27 35.0739C125.047 34.727 123.746 34.828 122.474 34.8164C119.192 34.7862 113.098 34.7937 112.157 34.5695C108.994 33.8148 103.538 28.2283 103.538 18.7728Z" fill="#B22335"/>
<circle cx="120.076" cy="18.7337" r="11.5725" fill="#FFC709"/>
<path d="M122.539 15.7702L117.538 15.7702C117.426 15.7702 117.334 15.734 117.261 15.6625C117.19 15.5902 117.154 15.4978 117.154 15.3855C117.152 15.3344 117.16 15.2835 117.179 15.2359C117.197 15.1883 117.225 15.1449 117.261 15.1086C117.298 15.0727 117.341 15.0446 117.389 15.0261C117.436 15.0075 117.487 14.999 117.538 15.0008L122.924 15.0008C122.975 14.999 123.026 15.0075 123.073 15.0261C123.121 15.0446 123.164 15.0727 123.201 15.1086C123.237 15.1449 123.265 15.1883 123.283 15.2359C123.302 15.2835 123.31 15.3344 123.308 15.3855L123.308 20.7709C123.308 20.8832 123.272 20.9755 123.201 21.0478C123.164 21.0837 123.121 21.1118 123.073 21.1303C123.026 21.1489 122.975 21.1574 122.924 21.1555C122.811 21.1555 122.719 21.1194 122.647 21.0478C122.575 20.9755 122.539 20.8832 122.539 20.7709L122.539 15.7702ZM122.647 15.1086C122.722 15.0386 122.821 15 122.924 15.0008C122.974 15.0004 123.024 15.0103 123.071 15.03C123.118 15.0498 123.16 15.0788 123.194 15.1155C123.231 15.1503 123.26 15.1923 123.279 15.2387C123.299 15.2852 123.309 15.3351 123.308 15.3855C123.308 15.4894 123.272 15.5817 123.201 15.6625L116.661 22.2018C116.586 22.2718 116.487 22.3104 116.384 22.3096C116.334 22.31 116.284 22.3001 116.238 22.2806C116.191 22.261 116.149 22.2321 116.114 22.1957C116.078 22.1608 116.049 22.1188 116.029 22.0722C116.009 22.0256 115.999 21.9755 116 21.9249C115.999 21.8222 116.037 21.7231 116.107 21.6479L122.647 15.1086Z" fill="#B22335"/>
</svg>
