<svg width="32" height="32" viewBox="0 0 32 32" fill="none" xmlns="http://www.w3.org/2000/svg">
<ellipse cx="15.9646" cy="16.0254" rx="15.9646" ry="15.9746" fill="#66943C"/>
<path d="M12.1704 19.2996C12.5597 20.7535 14.0103 21.6278 15.4103 21.2524C16.8104 20.8771 17.6297 19.3941 17.2404 17.9402" stroke="black" stroke-width="0.995478" stroke-linecap="round"/>
<ellipse cx="8.73946" cy="13.9264" rx="2.21407" ry="2.21545" fill="white"/>
<ellipse cx="9.09044" cy="13.3432" rx="0.93224" ry="0.932823" fill="black"/>
<ellipse cx="16.8977" cy="12.5272" rx="2.21407" ry="2.21545" fill="white"/>
<ellipse cx="17.9459" cy="12.1772" rx="0.93224" ry="0.932823" fill="black"/>
<path d="M16.0371 0C24.854 0.000129446 32.002 7.15217 32.002 15.9746C32.0019 23.0938 27.3469 29.124 20.917 31.1875C24.8328 28.2763 27.3711 23.6138 27.3711 18.3574C27.3711 9.53498 20.2231 2.38294 11.4062 2.38281C9.70438 2.38281 8.06444 2.64907 6.52637 3.14258C9.18276 1.16808 12.4738 0 16.0371 0Z" fill="#010201" fill-opacity="0.05"/>
</svg>
