<svg width="32" height="32" viewBox="0 0 32 32" fill="none" xmlns="http://www.w3.org/2000/svg">
<circle cx="16" cy="16" r="16" fill="#FFC709"/>
<path d="M12.2308 24.0421C14.7169 24.8658 17.4066 23.4588 18.2385 20.8993L9.23571 17.9162C8.40383 20.4756 9.74479 23.2183 12.2308 24.0421Z" fill="black"/>
<circle cx="18.3362" cy="15.5329" r="2.21898" fill="white"/>
<circle cx="11.7951" cy="13.6643" r="2.21898" fill="white"/>
<circle cx="17.0515" cy="15.416" r="0.934306" fill="black"/>
<circle cx="10.5105" cy="13.5473" r="0.934306" fill="black"/>
<path d="M15.9766 0.0239258C24.8131 0.0240052 31.9766 7.18742 31.9766 16.0239C31.9766 23.1596 27.3048 29.2025 20.8535 31.2651C24.8392 28.3551 27.4297 23.6483 27.4297 18.3354C27.4295 9.49905 20.2661 2.33545 11.4297 2.33545C9.72895 2.33545 8.09037 2.60169 6.55273 3.09326C9.19609 1.16352 12.4531 0.0239258 15.9766 0.0239258Z" fill="#010201" fill-opacity="0.05"/>
<ellipse cx="13.1862" cy="22.06" rx="1.82425" ry="1.03153" transform="rotate(22.8693 13.1862 22.06)" fill="#FA1926"/>
</svg>
