<svg width="32" height="32" viewBox="0 0 32 32" fill="none" xmlns="http://www.w3.org/2000/svg">
<ellipse cx="16" cy="16.0227" rx="16" ry="15.9773" fill="#1D2557"/>
<ellipse cx="8.75804" cy="13.9234" rx="2.21898" ry="2.21583" fill="white"/>
<ellipse cx="7.47337" cy="14.2733" rx="0.934307" ry="0.932981" fill="black"/>
<ellipse cx="16.9338" cy="12.5239" rx="2.21898" ry="2.21583" fill="white"/>
<ellipse cx="15.6491" cy="13.1071" rx="0.934307" ry="0.932981" fill="black"/>
<path d="M15.9238 0C24.7604 0 31.9238 7.15351 31.9238 15.9775C31.9237 23.0053 27.3796 28.9729 21.0654 31.1113C24.932 28.1949 27.4315 23.5671 27.4316 18.3555C27.4316 9.53144 20.2682 2.37793 11.4316 2.37793C9.63259 2.37793 7.90308 2.67494 6.28906 3.22168C8.96921 1.19984 12.306 0 15.9238 0Z" fill="#010201" fill-opacity="0.05"/>
<path d="M10.2773 20.571H16" stroke="white" stroke-width="1.38155"/>
</svg>
