<svg width="32" height="32" viewBox="0 0 32 32" fill="none" xmlns="http://www.w3.org/2000/svg">
<circle cx="16" cy="16" r="16" fill="#ED7010"/>
<path d="M12.2289 24.0419C14.7149 24.8657 17.4046 23.4586 18.2365 20.8992L9.23376 17.916C8.40188 20.4755 9.74284 23.2182 12.2289 24.0419Z" fill="black"/>
<circle cx="18.3362" cy="15.5328" r="2.21898" fill="white"/>
<circle cx="11.7971" cy="13.6643" r="2.21898" fill="white"/>
<circle cx="17.0515" cy="15.416" r="0.934306" fill="black"/>
<circle cx="10.5124" cy="13.5475" r="0.934306" fill="black"/>
<path d="M15.9785 0.0239258C24.815 0.0240052 31.9785 7.18742 31.9785 16.0239C31.9785 23.1596 27.3067 29.2025 20.8555 31.2651C24.8411 28.3551 27.4316 23.6483 27.4316 18.3354C27.4315 9.49905 20.2681 2.33545 11.4316 2.33545C9.73091 2.33545 8.09232 2.60169 6.55469 3.09326C9.19805 1.16352 12.4551 0.0239258 15.9785 0.0239258Z" fill="#010201" fill-opacity="0.05"/>
<ellipse cx="13.1862" cy="22.0602" rx="1.82425" ry="1.03153" transform="rotate(22.8693 13.1862 22.0602)" fill="#FA1926"/>
</svg>
