<svg width="32" height="32" viewBox="0 0 32 32" fill="none" xmlns="http://www.w3.org/2000/svg">
<ellipse cx="15.9499" cy="16" rx="15.9499" ry="16" fill="#B22335"/>
<ellipse cx="10.13" cy="14.1313" rx="2.21204" ry="2.21898" fill="white"/>
<ellipse cx="10.0134" cy="15.416" rx="0.931384" ry="0.934307" fill="black"/>
<ellipse cx="19.6769" cy="14.365" rx="2.21204" ry="2.21898" fill="white"/>
<path d="M17.2316 21.1386C17.2316 19.7841 16.137 18.686 14.7867 18.686C13.4364 18.686 12.3418 19.7841 12.3418 21.1386" stroke="black" stroke-width="0.990266" stroke-linecap="round"/>
<ellipse cx="19.5583" cy="15.6496" rx="0.931384" ry="0.934307" fill="black"/>
<path d="M16.0498 0C24.8586 0.00013339 31.999 7.16353 31.999 16C31.999 21.8557 28.8626 26.9751 24.1836 29.7637C27.0013 26.8781 28.7393 22.9278 28.7393 18.5693C28.7393 9.73286 21.5988 2.56947 12.79 2.56934C9.81935 2.56934 7.03863 3.38491 4.65723 4.80371C7.55221 1.8399 11.5866 0 16.0498 0Z" fill="#010201" fill-opacity="0.05"/>
</svg>
