<svg width="373" height="245" viewBox="0 0 373 245" fill="none" xmlns="http://www.w3.org/2000/svg">
<rect x="1" y="1" width="371" height="243" rx="15.4531" fill="#F9E0B7"/>
<rect x="1" y="1" width="371" height="243" rx="15.4531" stroke="#A03827" stroke-width="2"/>
<path d="M20.4704 24.4531C20.3717 24.4531 20.2949 24.4284 20.2401 24.3791C20.1852 24.3242 20.1578 24.2502 20.1578 24.157C20.1578 24.0637 20.1852 23.9952 20.2401 23.9513C20.2949 23.9019 20.3717 23.8773 20.4704 23.8773H21.5399V19.2128H21.8936L20.7008 20.0026C20.6295 20.0409 20.5609 20.0574 20.4951 20.0519C20.4348 20.0464 20.3827 20.0245 20.3388 19.9861C20.3004 19.9422 20.273 19.8929 20.2565 19.838C20.2401 19.7777 20.2428 19.7174 20.2648 19.657C20.2867 19.5912 20.3333 19.5364 20.4046 19.4925L21.5399 18.7439C21.6112 18.7 21.6797 18.6644 21.7455 18.6369C21.8114 18.6095 21.8772 18.5958 21.943 18.5958C22.0198 18.5958 22.0828 18.6205 22.1322 18.6699C22.187 18.7137 22.2145 18.785 22.2145 18.8837V23.8773H23.2016C23.3004 23.8773 23.3771 23.9019 23.432 23.9513C23.4868 23.9952 23.5143 24.0637 23.5143 24.157C23.5143 24.2557 23.4868 24.3297 23.432 24.3791C23.3771 24.4284 23.3004 24.4531 23.2016 24.4531H20.4704ZM26.596 24.5272C25.9324 24.5272 25.4278 24.2721 25.0823 23.7621C24.7368 23.252 24.564 22.5144 24.564 21.5491C24.564 20.902 24.6408 20.359 24.7944 19.9203C24.948 19.4761 25.1756 19.1415 25.4772 18.9166C25.7843 18.6918 26.1573 18.5794 26.596 18.5794C27.2651 18.5794 27.7697 18.8316 28.1097 19.3362C28.4552 19.8353 28.628 20.5702 28.628 21.5409C28.628 22.1881 28.5512 22.7338 28.3976 23.178C28.2441 23.6222 28.0165 23.9595 27.7148 24.1899C27.4132 24.4147 27.0402 24.5272 26.596 24.5272ZM26.596 23.9431C27.0567 23.9431 27.3967 23.7484 27.6161 23.359C27.841 22.9641 27.9534 22.3581 27.9534 21.5409C27.9534 20.7183 27.841 20.1177 27.6161 19.7393C27.3967 19.3554 27.0567 19.1634 26.596 19.1634C26.1408 19.1634 25.8008 19.3554 25.5759 19.7393C25.3511 20.1232 25.2386 20.7237 25.2386 21.5409C25.2386 22.3581 25.3511 22.9641 25.5759 23.359C25.8008 23.7484 26.1408 23.9431 26.596 23.9431ZM31.5287 24.5272C30.8651 24.5272 30.3606 24.2721 30.015 23.7621C29.6695 23.252 29.4968 22.5144 29.4968 21.5491C29.4968 20.902 29.5735 20.359 29.7271 19.9203C29.8807 19.4761 30.1083 19.1415 30.4099 18.9166C30.717 18.6918 31.09 18.5794 31.5287 18.5794C32.1978 18.5794 32.7024 18.8316 33.0424 19.3362C33.3879 19.8353 33.5607 20.5702 33.5607 21.5409C33.5607 22.1881 33.4839 22.7338 33.3303 23.178C33.1768 23.6222 32.9492 23.9595 32.6475 24.1899C32.3459 24.4147 31.973 24.5272 31.5287 24.5272ZM31.5287 23.9431C31.9894 23.9431 32.3294 23.7484 32.5488 23.359C32.7737 22.9641 32.8861 22.3581 32.8861 21.5409C32.8861 20.7183 32.7737 20.1177 32.5488 19.7393C32.3294 19.3554 31.9894 19.1634 31.5287 19.1634C31.0735 19.1634 30.7335 19.3554 30.5086 19.7393C30.2838 20.1232 30.1713 20.7237 30.1713 21.5409C30.1713 22.3581 30.2838 22.9641 30.5086 23.359C30.7335 23.7484 31.0735 23.9431 31.5287 23.9431Z" fill="#A13927"/>
<path d="M25.7311 62.9309C25.3299 62.9309 24.9754 62.8598 24.6677 62.7177C24.3619 62.5735 24.1233 62.3759 23.9519 62.1246C23.7806 61.8714 23.6958 61.5832 23.6978 61.2599C23.6958 61.0067 23.7455 60.773 23.8468 60.5588C23.9481 60.3426 24.0863 60.1624 24.2616 60.0183C24.4388 59.8723 24.6365 59.7797 24.8546 59.7408V59.7057C24.5684 59.6317 24.3405 59.471 24.171 59.2237C24.0016 58.9744 23.9179 58.691 23.9198 58.3736C23.9179 58.0698 23.9948 57.7981 24.1506 57.5585C24.3064 57.319 24.5206 57.1301 24.7933 56.9918C25.0679 56.8535 25.3805 56.7844 25.7311 56.7844C26.0777 56.7844 26.3874 56.8535 26.6601 56.9918C26.9327 57.1301 27.1469 57.319 27.3028 57.5585C27.4605 57.7981 27.5404 58.0698 27.5423 58.3736C27.5404 58.691 27.4537 58.9744 27.2823 59.2237C27.1129 59.471 26.8879 59.6317 26.6075 59.7057V59.7408C26.8236 59.7797 27.0184 59.8723 27.1917 60.0183C27.3651 60.1624 27.5034 60.3426 27.6066 60.5588C27.7098 60.773 27.7624 61.0067 27.7643 61.2599C27.7624 61.5832 27.6747 61.8714 27.5014 62.1246C27.33 62.3759 27.0914 62.5735 26.7857 62.7177C26.4818 62.8598 26.1303 62.9309 25.7311 62.9309ZM25.7311 62.2882C26.0018 62.2882 26.2355 62.2444 26.4322 62.1568C26.6289 62.0691 26.7808 61.9454 26.8879 61.7857C26.995 61.626 27.0496 61.4391 27.0515 61.2248C27.0496 60.9989 26.9911 60.7993 26.8762 60.626C26.7613 60.4526 26.6045 60.3163 26.4059 60.217C26.2092 60.1176 25.9842 60.068 25.7311 60.068C25.4759 60.068 25.2481 60.1176 25.0475 60.217C24.8488 60.3163 24.692 60.4526 24.5771 60.626C24.4642 60.7993 24.4087 60.9989 24.4106 61.2248C24.4087 61.4391 24.4603 61.626 24.5654 61.7857C24.6725 61.9454 24.8254 62.0691 25.0241 62.1568C25.2227 62.2444 25.4584 62.2882 25.7311 62.2882ZM25.7311 59.4487C25.9453 59.4487 26.1352 59.4058 26.3007 59.3201C26.4682 59.2344 26.5997 59.1146 26.6951 58.9608C26.7905 58.8069 26.8392 58.6268 26.8412 58.4203C26.8392 58.2178 26.7915 58.0415 26.698 57.8916C26.6045 57.7397 26.475 57.6228 26.3095 57.541C26.1439 57.4573 25.9511 57.4154 25.7311 57.4154C25.5071 57.4154 25.3114 57.4573 25.1439 57.541C24.9764 57.6228 24.8469 57.7397 24.7553 57.8916C24.6638 58.0415 24.619 58.2178 24.6209 58.4203C24.619 58.6268 24.6648 58.8069 24.7582 58.9608C24.8537 59.1146 24.9851 59.2344 25.1526 59.3201C25.3201 59.4058 25.5129 59.4487 25.7311 59.4487ZM30.8354 62.9309C30.3953 62.9309 30.0204 62.8111 29.7107 62.5716C29.401 62.3301 29.1644 61.9805 29.0008 61.5228C28.8372 61.0632 28.7554 60.5081 28.7554 59.8576C28.7554 59.211 28.8372 58.6589 29.0008 58.2012C29.1663 57.7416 29.4039 57.391 29.7136 57.1495C30.0252 56.9061 30.3992 56.7844 30.8354 56.7844C31.2717 56.7844 31.6446 56.9061 31.9543 57.1495C32.2659 57.391 32.5035 57.7416 32.6671 58.2012C32.8327 58.6589 32.9154 59.211 32.9154 59.8576C32.9154 60.5081 32.8336 61.0632 32.67 61.5228C32.5064 61.9805 32.2698 62.3301 31.9601 62.5716C31.6505 62.8111 31.2756 62.9309 30.8354 62.9309ZM30.8354 62.2882C31.2717 62.2882 31.6105 62.0779 31.852 61.6572C32.0935 61.2365 32.2143 60.6367 32.2143 59.8576C32.2143 59.3396 32.1588 58.8985 32.0478 58.5343C31.9387 58.1701 31.781 57.8925 31.5745 57.7017C31.37 57.5108 31.1237 57.4154 30.8354 57.4154C30.403 57.4154 30.0651 57.6286 29.8217 58.0552C29.5783 58.4797 29.4565 59.0806 29.4565 59.8576C29.4565 60.3757 29.5111 60.8159 29.6201 61.1781C29.7292 61.5403 29.886 61.8159 30.0905 62.0048C30.2969 62.1938 30.5452 62.2882 30.8354 62.2882Z" fill="#A13927"/>
<path d="M25.8012 100.327C25.5558 100.323 25.3104 100.277 25.065 100.187C24.8196 100.097 24.5956 99.9464 24.3931 99.7341C24.1905 99.5199 24.0279 99.2307 23.9052 98.8665C23.7825 98.5003 23.7212 98.0407 23.7212 97.4876C23.7212 96.9579 23.7708 96.4885 23.8701 96.0795C23.9695 95.6686 24.1136 95.3229 24.3025 95.0424C24.4914 94.76 24.7193 94.5458 24.9861 94.3997C25.2549 94.2536 25.5577 94.1806 25.8947 94.1806C26.2296 94.1806 26.5276 94.2478 26.7886 94.3822C27.0515 94.5146 27.2657 94.6996 27.4313 94.9372C27.5968 95.1748 27.704 95.4485 27.7526 95.7581H27.0398C26.9736 95.4894 26.8451 95.2664 26.6542 95.0892C26.4633 94.9119 26.2102 94.8233 25.8947 94.8233C25.4311 94.8233 25.066 95.0249 24.7991 95.428C24.5343 95.8312 24.4009 96.397 24.3989 97.1253H24.4457C24.5547 96.9598 24.6842 96.8186 24.8342 96.7017C24.9861 96.5829 25.1536 96.4914 25.3367 96.4271C25.5197 96.3629 25.7135 96.3307 25.918 96.3307C26.2608 96.3307 26.5744 96.4164 26.8587 96.5878C27.143 96.7573 27.3709 96.9919 27.5423 97.2919C27.7137 97.5898 27.7994 97.9316 27.7994 98.3173C27.7994 98.6873 27.7166 99.0262 27.5511 99.3339C27.3855 99.6397 27.1528 99.8831 26.8529 100.064C26.5549 100.243 26.2043 100.331 25.8012 100.327ZM25.8012 99.6845C26.0466 99.6845 26.2666 99.6231 26.4614 99.5004C26.6581 99.3777 26.8129 99.2131 26.9259 99.0067C27.0408 98.8003 27.0983 98.5704 27.0983 98.3173C27.0983 98.0699 27.0427 97.845 26.9317 97.6424C26.8227 97.4379 26.6717 97.2753 26.4789 97.1546C26.2881 97.0338 26.0699 96.9734 25.8245 96.9734C25.6395 96.9734 25.4672 97.0104 25.3075 97.0844C25.1478 97.1565 25.0075 97.2558 24.8868 97.3824C24.768 97.509 24.6745 97.6541 24.6063 97.8177C24.5382 97.9794 24.5041 98.1498 24.5041 98.3289C24.5041 98.5666 24.5596 98.7886 24.6706 98.995C24.7836 99.2015 24.9374 99.368 25.1322 99.4946C25.3289 99.6212 25.5519 99.6845 25.8012 99.6845ZM30.8997 100.327C30.4595 100.327 30.0846 100.207 29.775 99.9678C29.4653 99.7263 29.2287 99.3767 29.0651 98.9191C28.9015 98.4594 28.8197 97.9044 28.8197 97.2539C28.8197 96.6073 28.9015 96.0552 29.0651 95.5975C29.2306 95.1378 29.4682 94.7873 29.7779 94.5458C30.0895 94.3023 30.4634 94.1806 30.8997 94.1806C31.3359 94.1806 31.7089 94.3023 32.0186 94.5458C32.3302 94.7873 32.5678 95.1378 32.7314 95.5975C32.8969 96.0552 32.9797 96.6073 32.9797 97.2539C32.9797 97.9044 32.8979 98.4594 32.7343 98.9191C32.5707 99.3767 32.3341 99.7263 32.0244 99.9678C31.7147 100.207 31.3398 100.327 30.8997 100.327ZM30.8997 99.6845C31.3359 99.6845 31.6748 99.4741 31.9163 99.0534C32.1578 98.6328 32.2786 98.0329 32.2786 97.2539C32.2786 96.7358 32.2231 96.2947 32.112 95.9305C32.003 95.5663 31.8452 95.2888 31.6388 95.0979C31.4343 94.9071 31.1879 94.8116 30.8997 94.8116C30.4673 94.8116 30.1294 95.0249 29.886 95.4514C29.6425 95.876 29.5208 96.4768 29.5208 97.2539C29.5208 97.7719 29.5753 98.2121 29.6844 98.5743C29.7935 98.9366 29.9502 99.2122 30.1547 99.4011C30.3612 99.59 30.6095 99.6845 30.8997 99.6845Z" fill="#A13927"/>
<path d="M23.6744 136.414V135.818L26.3036 131.658H26.736V132.582H26.4439L24.4573 135.725V135.772H27.998V136.414H23.6744ZM26.4906 137.641V136.233V135.956V131.658H27.1801V137.641H26.4906ZM31.0443 137.723C30.6041 137.723 30.2292 137.603 29.9196 137.364C29.6099 137.122 29.3733 136.773 29.2097 136.315C29.0461 135.855 28.9643 135.3 28.9643 134.65C28.9643 134.003 29.0461 133.451 29.2097 132.993C29.3752 132.534 29.6128 132.183 29.9225 131.942C30.2341 131.698 30.608 131.577 31.0443 131.577C31.4805 131.577 31.8535 131.698 32.1632 131.942C32.4748 132.183 32.7124 132.534 32.876 132.993C33.0415 133.451 33.1243 134.003 33.1243 134.65C33.1243 135.3 33.0425 135.855 32.8789 136.315C32.7153 136.773 32.4787 137.122 32.169 137.364C31.8593 137.603 31.4844 137.723 31.0443 137.723ZM31.0443 137.08C31.4805 137.08 31.8194 136.87 32.0609 136.449C32.3024 136.029 32.4232 135.429 32.4232 134.65C32.4232 134.132 32.3677 133.691 32.2567 133.327C32.1476 132.962 31.9898 132.685 31.7834 132.494C31.5789 132.303 31.3325 132.208 31.0443 132.208C30.6119 132.208 30.274 132.421 30.0306 132.847C29.7871 133.272 29.6654 133.873 29.6654 134.65C29.6654 135.168 29.7199 135.608 29.829 135.97C29.9381 136.333 30.0948 136.608 30.2993 136.797C30.5058 136.986 30.7541 137.08 31.0443 137.08Z" fill="#A13927"/>
<path d="M23.8146 175.038V174.512L25.7895 172.35C26.0212 172.097 26.2121 171.877 26.3621 171.69C26.512 171.501 26.623 171.324 26.6951 171.158C26.7691 170.991 26.8061 170.815 26.8061 170.632C26.8061 170.422 26.7555 170.24 26.6542 170.086C26.5549 169.932 26.4186 169.813 26.2452 169.729C26.0719 169.646 25.8771 169.604 25.6609 169.604C25.4311 169.604 25.2305 169.652 25.0591 169.747C24.8897 169.84 24.7582 169.972 24.6648 170.141C24.5732 170.311 24.5275 170.509 24.5275 170.737H23.838C23.838 170.387 23.9188 170.079 24.0805 169.814C24.2421 169.549 24.4622 169.343 24.7407 169.195C25.0212 169.047 25.3357 168.973 25.6843 168.973C26.0349 168.973 26.3455 169.047 26.6162 169.195C26.8869 169.343 27.0992 169.543 27.2531 169.794C27.4069 170.045 27.4839 170.324 27.4839 170.632C27.4839 170.852 27.444 171.067 27.3641 171.278C27.2862 171.486 27.1499 171.719 26.9551 171.976C26.7623 172.231 26.4945 172.543 26.1517 172.911L24.8079 174.348V174.395H27.589V175.038H23.8146ZM30.747 175.119C30.3069 175.119 29.932 175 29.6223 174.76C29.3126 174.519 29.076 174.169 28.9124 173.711C28.7488 173.252 28.667 172.697 28.667 172.046C28.667 171.4 28.7488 170.847 28.9124 170.39C29.078 169.93 29.3156 169.58 29.6252 169.338C29.9368 169.095 30.3108 168.973 30.747 168.973C31.1833 168.973 31.5563 169.095 31.8659 169.338C32.1775 169.58 32.4151 169.93 32.5787 170.39C32.7443 170.847 32.8271 171.4 32.8271 172.046C32.8271 172.697 32.7453 173.252 32.5817 173.711C32.4181 174.169 32.1814 174.519 31.8718 174.76C31.5621 175 31.1872 175.119 30.747 175.119ZM30.747 174.477C31.1833 174.477 31.5222 174.266 31.7637 173.846C32.0052 173.425 32.1259 172.825 32.1259 172.046C32.1259 171.528 32.0704 171.087 31.9594 170.723C31.8503 170.359 31.6926 170.081 31.4861 169.89C31.2816 169.699 31.0353 169.604 30.747 169.604C30.3147 169.604 29.9768 169.817 29.7333 170.244C29.4899 170.668 29.3682 171.269 29.3682 172.046C29.3682 172.564 29.4227 173.004 29.5318 173.367C29.6408 173.729 29.7976 174.004 30.0021 174.193C30.2085 174.382 30.4569 174.477 30.747 174.477Z" fill="#A13927"/>
<path d="M30.7661 212.515C30.326 212.515 29.9511 212.396 29.6414 212.156C29.3317 211.915 29.0951 211.565 28.9315 211.107C28.7679 210.648 28.6861 210.093 28.6861 209.442C28.6861 208.796 28.7679 208.243 28.9315 207.786C29.097 207.326 29.3346 206.976 29.6443 206.734C29.9559 206.491 30.3299 206.369 30.7661 206.369C31.2024 206.369 31.5753 206.491 31.885 206.734C32.1966 206.976 32.4342 207.326 32.5978 207.786C32.7634 208.243 32.8461 208.796 32.8461 209.442C32.8461 210.093 32.7643 210.648 32.6007 211.107C32.4371 211.565 32.2005 211.915 31.8908 212.156C31.5812 212.396 31.2063 212.515 30.7661 212.515ZM30.7661 211.873C31.2024 211.873 31.5412 211.662 31.7827 211.242C32.0242 210.821 32.145 210.221 32.145 209.442C32.145 208.924 32.0895 208.483 31.9785 208.119C31.8694 207.755 31.7117 207.477 31.5052 207.286C31.3007 207.095 31.0544 207 30.7661 207C30.3338 207 29.9958 207.213 29.7524 207.64C29.509 208.064 29.3872 208.665 29.3872 209.442C29.3872 209.96 29.4418 210.4 29.5508 210.763C29.6599 211.125 29.8167 211.4 30.0212 211.589C30.2276 211.778 30.4759 211.873 30.7661 211.873Z" fill="#A13927"/>
<line x1="37.623" y1="20.2236" x2="355.207" y2="20.2236" stroke="#A13927" stroke-width="0.685547" stroke-dasharray="1.37"/>
<line x1="37.623" y1="58.0896" x2="355.207" y2="58.0896" stroke="#A13927" stroke-width="0.685547" stroke-dasharray="1.37"/>
<line x1="37.623" y1="95.9556" x2="355.207" y2="95.9556" stroke="#A13927" stroke-width="0.685547" stroke-dasharray="1.37"/>
<line x1="37.623" y1="133.822" x2="355.207" y2="133.822" stroke="#A13927" stroke-width="0.685547" stroke-dasharray="1.37"/>
<line x1="37.623" y1="171.688" x2="355.207" y2="171.688" stroke="#A13927" stroke-width="0.685547" stroke-dasharray="1.37"/>
<line x1="37.623" y1="209.554" x2="355.207" y2="209.554" stroke="black" stroke-opacity="0.5" stroke-width="0.685547"/>
<line x1="37.2803" y1="209.896" x2="37.2803" y2="20.5664" stroke="#A13927" stroke-width="0.685547" stroke-dasharray="1.37"/>
<line x1="90.2109" y1="209.896" x2="90.2109" y2="20.5664" stroke="#A13927" stroke-width="0.685547" stroke-dasharray="1.37"/>
<line x1="143.142" y1="209.896" x2="143.142" y2="20.5664" stroke="#A13927" stroke-width="0.685547" stroke-dasharray="1.37"/>
<line x1="196.072" y1="209.896" x2="196.072" y2="20.5664" stroke="#A13927" stroke-width="0.685547" stroke-dasharray="1.37"/>
<line x1="249.003" y1="209.896" x2="249.003" y2="20.5664" stroke="#A13927" stroke-width="0.685547" stroke-dasharray="1.37"/>
<line x1="301.933" y1="209.896" x2="301.933" y2="20.5664" stroke="#A13927" stroke-width="0.685547" stroke-dasharray="1.37"/>
<line x1="354.864" y1="209.896" x2="354.864" y2="20.5664" stroke="#A13927" stroke-width="0.685547" stroke-dasharray="1.37"/>
<path d="M51.0397 221.062L49.4037 215.08H50.1399L51.3903 219.952H51.4487L52.7224 215.08H53.5404L54.8141 219.952H54.8725L56.1229 215.08H56.8591L55.2231 221.062H54.4752L53.1548 216.295H53.108L51.7876 221.062H51.0397ZM59.1319 221.156C58.6995 221.156 58.3266 221.061 58.013 220.87C57.7014 220.677 57.4609 220.408 57.2914 220.063C57.1239 219.717 57.0402 219.314 57.0402 218.854C57.0402 218.394 57.1239 217.989 57.2914 217.639C57.4609 217.286 57.6965 217.012 57.9984 216.815C58.3022 216.616 58.6567 216.517 59.0618 216.517C59.2955 216.517 59.5263 216.556 59.7541 216.634C59.982 216.712 60.1894 216.838 60.3764 217.013C60.5634 217.187 60.7123 217.417 60.8234 217.703C60.9344 217.989 60.9899 218.342 60.9899 218.76V219.053H57.531V218.457H60.2887C60.2887 218.203 60.2381 217.978 60.1368 217.779C60.0375 217.58 59.8953 217.423 59.7103 217.309C59.5272 217.194 59.3111 217.136 59.0618 217.136C58.7872 217.136 58.5496 217.204 58.349 217.341C58.1503 217.475 57.9974 217.65 57.8903 217.867C57.7832 218.083 57.7296 218.314 57.7296 218.562V218.959C57.7296 219.298 57.7881 219.585 57.9049 219.821C58.0237 220.055 58.1883 220.233 58.3986 220.356C58.609 220.476 58.8534 220.537 59.1319 220.537C59.313 220.537 59.4766 220.511 59.6227 220.461C59.7707 220.408 59.8983 220.33 60.0054 220.227C60.1125 220.122 60.1953 219.991 60.2537 219.836L60.9198 220.022C60.8496 220.248 60.7318 220.447 60.5663 220.618C60.4007 220.788 60.1962 220.92 59.9528 221.016C59.7093 221.109 59.4357 221.156 59.1319 221.156ZM63.92 221.156C63.4876 221.156 63.1147 221.061 62.8011 220.87C62.4895 220.677 62.249 220.408 62.0795 220.063C61.912 219.717 61.8283 219.314 61.8283 218.854C61.8283 218.394 61.912 217.989 62.0795 217.639C62.249 217.286 62.4846 217.012 62.7865 216.815C63.0903 216.616 63.4448 216.517 63.8499 216.517C64.0836 216.517 64.3144 216.556 64.5422 216.634C64.7701 216.712 64.9775 216.838 65.1645 217.013C65.3515 217.187 65.5005 217.417 65.6115 217.703C65.7225 217.989 65.778 218.342 65.778 218.76V219.053H62.3191V218.457H65.0769C65.0769 218.203 65.0262 217.978 64.9249 217.779C64.8256 217.58 64.6834 217.423 64.4984 217.309C64.3154 217.194 64.0992 217.136 63.8499 217.136C63.5753 217.136 63.3377 217.204 63.1371 217.341C62.9384 217.475 62.7855 217.65 62.6784 217.867C62.5713 218.083 62.5177 218.314 62.5177 218.562V218.959C62.5177 219.298 62.5762 219.585 62.693 219.821C62.8118 220.055 62.9764 220.233 63.1867 220.356C63.3971 220.476 63.6415 220.537 63.92 220.537C64.1011 220.537 64.2647 220.511 64.4108 220.461C64.5588 220.408 64.6864 220.33 64.7935 220.227C64.9006 220.122 64.9834 219.991 65.0418 219.836L65.7079 220.022C65.6378 220.248 65.5199 220.447 65.3544 220.618C65.1888 220.788 64.9843 220.92 64.7409 221.016C64.4975 221.109 64.2238 221.156 63.92 221.156ZM67.4695 219.427L67.4578 218.573H67.598L69.5612 216.575H70.4142L68.3225 218.69H68.2641L67.4695 219.427ZM66.8268 221.062V215.08H67.5162V221.062H66.8268ZM69.678 221.062L67.9252 218.842L68.416 218.363L70.5544 221.062H69.678ZM75.707 215.08V221.062H74.9825V215.839H74.9474L73.4867 216.809V216.073L74.9825 215.08H75.707Z" fill="#A13927"/>
<path d="M103.83 221.062L102.194 215.08H102.93L104.181 219.952H104.239L105.513 215.08H106.331L107.605 219.952H107.663L108.913 215.08H109.65L108.014 221.062H107.266L105.945 216.295H105.898L104.578 221.062H103.83ZM111.922 221.156C111.49 221.156 111.117 221.061 110.803 220.87C110.492 220.677 110.251 220.408 110.082 220.063C109.914 219.717 109.831 219.314 109.831 218.854C109.831 218.394 109.914 217.989 110.082 217.639C110.251 217.286 110.487 217.012 110.789 216.815C111.093 216.616 111.447 216.517 111.852 216.517C112.086 216.517 112.317 216.556 112.545 216.634C112.772 216.712 112.98 216.838 113.167 217.013C113.354 217.187 113.503 217.417 113.614 217.703C113.725 217.989 113.78 218.342 113.78 218.76V219.053H110.321V218.457H113.079C113.079 218.203 113.029 217.978 112.927 217.779C112.828 217.58 112.686 217.423 112.501 217.309C112.318 217.194 112.102 217.136 111.852 217.136C111.578 217.136 111.34 217.204 111.139 217.341C110.941 217.475 110.788 217.65 110.681 217.867C110.574 218.083 110.52 218.314 110.52 218.562V218.959C110.52 219.298 110.579 219.585 110.695 219.821C110.814 220.055 110.979 220.233 111.189 220.356C111.399 220.476 111.644 220.537 111.922 220.537C112.103 220.537 112.267 220.511 112.413 220.461C112.561 220.408 112.689 220.33 112.796 220.227C112.903 220.122 112.986 219.991 113.044 219.836L113.71 220.022C113.64 220.248 113.522 220.447 113.357 220.618C113.191 220.788 112.987 220.92 112.743 221.016C112.5 221.109 112.226 221.156 111.922 221.156ZM116.71 221.156C116.278 221.156 115.905 221.061 115.592 220.87C115.28 220.677 115.039 220.408 114.87 220.063C114.703 219.717 114.619 219.314 114.619 218.854C114.619 218.394 114.703 217.989 114.87 217.639C115.039 217.286 115.275 217.012 115.577 216.815C115.881 216.616 116.235 216.517 116.64 216.517C116.874 216.517 117.105 216.556 117.333 216.634C117.561 216.712 117.768 216.838 117.955 217.013C118.142 217.187 118.291 217.417 118.402 217.703C118.513 217.989 118.568 218.342 118.568 218.76V219.053H115.11V218.457H117.867C117.867 218.203 117.817 217.978 117.715 217.779C117.616 217.58 117.474 217.423 117.289 217.309C117.106 217.194 116.89 217.136 116.64 217.136C116.366 217.136 116.128 217.204 115.928 217.341C115.729 217.475 115.576 217.65 115.469 217.867C115.362 218.083 115.308 218.314 115.308 218.562V218.959C115.308 219.298 115.367 219.585 115.483 219.821C115.602 220.055 115.767 220.233 115.977 220.356C116.188 220.476 116.432 220.537 116.71 220.537C116.892 220.537 117.055 220.511 117.201 220.461C117.349 220.408 117.477 220.33 117.584 220.227C117.691 220.122 117.774 219.991 117.832 219.836L118.498 220.022C118.428 220.248 118.31 220.447 118.145 220.618C117.979 220.788 117.775 220.92 117.531 221.016C117.288 221.109 117.014 221.156 116.71 221.156ZM120.26 219.427L120.248 218.573H120.388L122.352 216.575H123.205L121.113 218.69H121.055L120.26 219.427ZM119.617 221.062V215.08H120.307V221.062H119.617ZM122.468 221.062L120.716 218.842L121.206 218.363L123.345 221.062H122.468ZM126.394 221.062V220.537L128.369 218.375C128.601 218.122 128.792 217.902 128.941 217.715C129.091 217.526 129.202 217.348 129.275 217.183C129.349 217.015 129.386 216.84 129.386 216.657C129.386 216.447 129.335 216.265 129.234 216.111C129.134 215.957 128.998 215.838 128.825 215.754C128.651 215.671 128.457 215.629 128.24 215.629C128.011 215.629 127.81 215.676 127.639 215.772C127.469 215.865 127.338 215.997 127.244 216.166C127.153 216.336 127.107 216.534 127.107 216.762H126.417C126.417 216.412 126.498 216.104 126.66 215.839C126.822 215.574 127.042 215.368 127.32 215.22C127.601 215.072 127.915 214.998 128.264 214.998C128.614 214.998 128.925 215.072 129.196 215.22C129.466 215.368 129.679 215.567 129.833 215.819C129.986 216.07 130.063 216.349 130.063 216.657C130.063 216.877 130.023 217.092 129.944 217.303C129.866 217.511 129.729 217.744 129.535 218.001C129.342 218.256 129.074 218.568 128.731 218.936L127.387 220.373V220.42H130.168V221.062H126.394Z" fill="#A13927"/>
<path d="M157.07 221.062L155.434 215.08H156.171L157.421 219.952H157.479L158.753 215.08H159.571L160.845 219.952H160.903L162.153 215.08H162.89L161.254 221.062H160.506L159.185 216.295H159.139L157.818 221.062H157.07ZM165.162 221.156C164.73 221.156 164.357 221.061 164.044 220.87C163.732 220.677 163.491 220.408 163.322 220.063C163.155 219.717 163.071 219.314 163.071 218.854C163.071 218.394 163.155 217.989 163.322 217.639C163.491 217.286 163.727 217.012 164.029 216.815C164.333 216.616 164.687 216.517 165.092 216.517C165.326 216.517 165.557 216.556 165.785 216.634C166.013 216.712 166.22 216.838 166.407 217.013C166.594 217.187 166.743 217.417 166.854 217.703C166.965 217.989 167.02 218.342 167.02 218.76V219.053H163.562V218.457H166.319C166.319 218.203 166.269 217.978 166.167 217.779C166.068 217.58 165.926 217.423 165.741 217.309C165.558 217.194 165.342 217.136 165.092 217.136C164.818 217.136 164.58 217.204 164.38 217.341C164.181 217.475 164.028 217.65 163.921 217.867C163.814 218.083 163.76 218.314 163.76 218.562V218.959C163.76 219.298 163.819 219.585 163.935 219.821C164.054 220.055 164.219 220.233 164.429 220.356C164.64 220.476 164.884 220.537 165.162 220.537C165.344 220.537 165.507 220.511 165.653 220.461C165.801 220.408 165.929 220.33 166.036 220.227C166.143 220.122 166.226 219.991 166.284 219.836L166.95 220.022C166.88 220.248 166.762 220.447 166.597 220.618C166.431 220.788 166.227 220.92 165.983 221.016C165.74 221.109 165.466 221.156 165.162 221.156ZM169.951 221.156C169.518 221.156 169.145 221.061 168.832 220.87C168.52 220.677 168.28 220.408 168.11 220.063C167.943 219.717 167.859 219.314 167.859 218.854C167.859 218.394 167.943 217.989 168.11 217.639C168.28 217.286 168.515 217.012 168.817 216.815C169.121 216.616 169.475 216.517 169.88 216.517C170.114 216.517 170.345 216.556 170.573 216.634C170.801 216.712 171.008 216.838 171.195 217.013C171.382 217.187 171.531 217.417 171.642 217.703C171.753 217.989 171.809 218.342 171.809 218.76V219.053H168.35V218.457H171.107C171.107 218.203 171.057 217.978 170.956 217.779C170.856 217.58 170.714 217.423 170.529 217.309C170.346 217.194 170.13 217.136 169.88 217.136C169.606 217.136 169.368 217.204 169.168 217.341C168.969 217.475 168.816 217.65 168.709 217.867C168.602 218.083 168.548 218.314 168.548 218.562V218.959C168.548 219.298 168.607 219.585 168.724 219.821C168.842 220.055 169.007 220.233 169.217 220.356C169.428 220.476 169.672 220.537 169.951 220.537C170.132 220.537 170.295 220.511 170.441 220.461C170.589 220.408 170.717 220.33 170.824 220.227C170.931 220.122 171.014 219.991 171.072 219.836L171.738 220.022C171.668 220.248 171.551 220.447 171.385 220.618C171.219 220.788 171.015 220.92 170.771 221.016C170.528 221.109 170.254 221.156 169.951 221.156ZM173.5 219.427L173.488 218.573H173.629L175.592 216.575H176.445L174.353 218.69H174.295L173.5 219.427ZM172.857 221.062V215.08H173.547V221.062H172.857ZM175.709 221.062L173.956 218.842L174.447 218.363L176.585 221.062H175.709ZM181.656 221.144C181.27 221.144 180.926 221.078 180.625 220.946C180.325 220.813 180.086 220.629 179.909 220.394C179.733 220.156 179.638 219.88 179.622 219.567H180.359C180.374 219.76 180.44 219.926 180.557 220.066C180.674 220.205 180.827 220.312 181.016 220.388C181.205 220.464 181.414 220.502 181.644 220.502C181.901 220.502 182.129 220.457 182.328 220.367C182.526 220.278 182.682 220.153 182.795 219.993C182.908 219.834 182.965 219.649 182.965 219.438C182.965 219.218 182.91 219.024 182.801 218.857C182.692 218.687 182.532 218.555 182.322 218.46C182.111 218.364 181.854 218.316 181.551 218.316H181.071V217.674H181.551C181.788 217.674 181.997 217.631 182.176 217.545C182.357 217.459 182.498 217.339 182.599 217.183C182.703 217.027 182.754 216.844 182.754 216.634C182.754 216.431 182.709 216.255 182.62 216.105C182.53 215.955 182.404 215.838 182.24 215.754C182.078 215.671 181.888 215.629 181.667 215.629C181.461 215.629 181.266 215.667 181.083 215.743C180.902 215.817 180.754 215.925 180.639 216.067C180.524 216.207 180.462 216.377 180.452 216.575H179.751C179.763 216.262 179.857 215.987 180.034 215.751C180.212 215.514 180.443 215.329 180.73 215.196C181.018 215.064 181.334 214.998 181.679 214.998C182.049 214.998 182.367 215.073 182.631 215.223C182.896 215.371 183.1 215.566 183.242 215.81C183.384 216.053 183.455 216.316 183.455 216.599C183.455 216.936 183.367 217.223 183.189 217.46C183.014 217.698 182.776 217.863 182.474 217.954V218.001C182.852 218.063 183.147 218.224 183.359 218.483C183.571 218.74 183.677 219.058 183.677 219.438C183.677 219.763 183.589 220.056 183.411 220.315C183.236 220.572 182.997 220.774 182.693 220.922C182.389 221.07 182.043 221.144 181.656 221.144Z" fill="#A13927"/>
<path d="M210.419 221.062L208.783 215.08H209.519L210.77 219.952H210.828L212.102 215.08H212.92L214.193 219.952H214.252L215.502 215.08H216.238L214.602 221.062H213.855L212.534 216.295H212.487L211.167 221.062H210.419ZM218.511 221.156C218.079 221.156 217.706 221.061 217.392 220.87C217.081 220.677 216.84 220.408 216.671 220.063C216.503 219.717 216.42 219.314 216.42 218.854C216.42 218.394 216.503 217.989 216.671 217.639C216.84 217.286 217.076 217.012 217.378 216.815C217.682 216.616 218.036 216.517 218.441 216.517C218.675 216.517 218.906 216.556 219.134 216.634C219.361 216.712 219.569 216.838 219.756 217.013C219.943 217.187 220.092 217.417 220.203 217.703C220.314 217.989 220.369 218.342 220.369 218.76V219.053H216.91V218.457H219.668C219.668 218.203 219.617 217.978 219.516 217.779C219.417 217.58 219.275 217.423 219.09 217.309C218.907 217.194 218.69 217.136 218.441 217.136C218.167 217.136 217.929 217.204 217.728 217.341C217.53 217.475 217.377 217.65 217.27 217.867C217.163 218.083 217.109 218.314 217.109 218.562V218.959C217.109 219.298 217.167 219.585 217.284 219.821C217.403 220.055 217.568 220.233 217.778 220.356C217.988 220.476 218.233 220.537 218.511 220.537C218.692 220.537 218.856 220.511 219.002 220.461C219.15 220.408 219.278 220.33 219.385 220.227C219.492 220.122 219.575 219.991 219.633 219.836L220.299 220.022C220.229 220.248 220.111 220.447 219.946 220.618C219.78 220.788 219.576 220.92 219.332 221.016C219.089 221.109 218.815 221.156 218.511 221.156ZM223.299 221.156C222.867 221.156 222.494 221.061 222.181 220.87C221.869 220.677 221.628 220.408 221.459 220.063C221.291 219.717 221.208 219.314 221.208 218.854C221.208 218.394 221.291 217.989 221.459 217.639C221.628 217.286 221.864 217.012 222.166 216.815C222.47 216.616 222.824 216.517 223.229 216.517C223.463 216.517 223.694 216.556 223.922 216.634C224.15 216.712 224.357 216.838 224.544 217.013C224.731 217.187 224.88 217.417 224.991 217.703C225.102 217.989 225.157 218.342 225.157 218.76V219.053H221.698V218.457H224.456C224.456 218.203 224.406 217.978 224.304 217.779C224.205 217.58 224.063 217.423 223.878 217.309C223.695 217.194 223.479 217.136 223.229 217.136C222.955 217.136 222.717 217.204 222.516 217.341C222.318 217.475 222.165 217.65 222.058 217.867C221.951 218.083 221.897 218.314 221.897 218.562V218.959C221.897 219.298 221.956 219.585 222.072 219.821C222.191 220.055 222.356 220.233 222.566 220.356C222.776 220.476 223.021 220.537 223.299 220.537C223.481 220.537 223.644 220.511 223.79 220.461C223.938 220.408 224.066 220.33 224.173 220.227C224.28 220.122 224.363 219.991 224.421 219.836L225.087 220.022C225.017 220.248 224.899 220.447 224.734 220.618C224.568 220.788 224.364 220.92 224.12 221.016C223.877 221.109 223.603 221.156 223.299 221.156ZM226.849 219.427L226.837 218.573H226.977L228.941 216.575H229.794L227.702 218.69H227.643L226.849 219.427ZM226.206 221.062V215.08H226.896V221.062H226.206ZM229.057 221.062L227.305 218.842L227.795 218.363L229.934 221.062H229.057ZM232.843 219.836V219.24L235.472 215.08H235.904V216.003H235.612L233.626 219.146V219.193H237.166V219.836H232.843ZM235.659 221.062V219.654V219.377V215.08H236.348V221.062H235.659Z" fill="#A13927"/>
<path d="M263.925 221.062L262.289 215.08H263.025L264.275 219.952H264.334L265.607 215.08H266.425L267.699 219.952H267.757L269.008 215.08H269.744L268.108 221.062H267.36L266.04 216.295H265.993L264.672 221.062H263.925ZM272.017 221.156C271.584 221.156 271.211 221.061 270.898 220.87C270.586 220.677 270.346 220.408 270.176 220.063C270.009 219.717 269.925 219.314 269.925 218.854C269.925 218.394 270.009 217.989 270.176 217.639C270.346 217.286 270.581 217.012 270.883 216.815C271.187 216.616 271.542 216.517 271.947 216.517C272.18 216.517 272.411 216.556 272.639 216.634C272.867 216.712 273.074 216.838 273.261 217.013C273.448 217.187 273.597 217.417 273.708 217.703C273.819 217.989 273.875 218.342 273.875 218.76V219.053H270.416V218.457H273.174C273.174 218.203 273.123 217.978 273.022 217.779C272.922 217.58 272.78 217.423 272.595 217.309C272.412 217.194 272.196 217.136 271.947 217.136C271.672 217.136 271.434 217.204 271.234 217.341C271.035 217.475 270.882 217.65 270.775 217.867C270.668 218.083 270.614 218.314 270.614 218.562V218.959C270.614 219.298 270.673 219.585 270.79 219.821C270.909 220.055 271.073 220.233 271.283 220.356C271.494 220.476 271.738 220.537 272.017 220.537C272.198 220.537 272.361 220.511 272.508 220.461C272.656 220.408 272.783 220.33 272.89 220.227C272.997 220.122 273.08 219.991 273.139 219.836L273.805 220.022C273.735 220.248 273.617 220.447 273.451 220.618C273.286 220.788 273.081 220.92 272.838 221.016C272.594 221.109 272.321 221.156 272.017 221.156ZM276.805 221.156C276.372 221.156 276 221.061 275.686 220.87C275.374 220.677 275.134 220.408 274.964 220.063C274.797 219.717 274.713 219.314 274.713 218.854C274.713 218.394 274.797 217.989 274.964 217.639C275.134 217.286 275.369 217.012 275.671 216.815C275.975 216.616 276.33 216.517 276.735 216.517C276.968 216.517 277.199 216.556 277.427 216.634C277.655 216.712 277.862 216.838 278.049 217.013C278.236 217.187 278.385 217.417 278.496 217.703C278.607 217.989 278.663 218.342 278.663 218.76V219.053H275.204V218.457H277.962C277.962 218.203 277.911 217.978 277.81 217.779C277.71 217.58 277.568 217.423 277.383 217.309C277.2 217.194 276.984 217.136 276.735 217.136C276.46 217.136 276.223 217.204 276.022 217.341C275.823 217.475 275.67 217.65 275.563 217.867C275.456 218.083 275.403 218.314 275.403 218.562V218.959C275.403 219.298 275.461 219.585 275.578 219.821C275.697 220.055 275.861 220.233 276.072 220.356C276.282 220.476 276.526 220.537 276.805 220.537C276.986 220.537 277.15 220.511 277.296 220.461C277.444 220.408 277.571 220.33 277.678 220.227C277.785 220.122 277.868 219.991 277.927 219.836L278.593 220.022C278.523 220.248 278.405 220.447 278.239 220.618C278.074 220.788 277.869 220.92 277.626 221.016C277.382 221.109 277.109 221.156 276.805 221.156ZM280.354 219.427L280.343 218.573H280.483L282.446 216.575H283.299L281.207 218.69H281.149L280.354 219.427ZM279.712 221.062V215.08H280.401V221.062H279.712ZM282.563 221.062L280.81 218.842L281.301 218.363L283.439 221.062H282.563ZM288.358 221.144C288.015 221.144 287.707 221.076 287.432 220.94C287.157 220.803 286.937 220.617 286.772 220.379C286.606 220.141 286.516 219.871 286.5 219.567H287.201C287.229 219.837 287.351 220.061 287.569 220.239C287.789 220.414 288.052 220.502 288.358 220.502C288.604 220.502 288.822 220.444 289.013 220.329C289.205 220.214 289.356 220.057 289.465 219.856C289.576 219.653 289.632 219.425 289.632 219.169C289.632 218.908 289.574 218.676 289.459 218.471C289.347 218.265 289.191 218.102 288.992 217.983C288.793 217.865 288.567 217.804 288.311 217.802C288.128 217.8 287.94 217.829 287.748 217.887C287.555 217.943 287.396 218.016 287.271 218.106L286.594 218.024L286.956 215.08H290.064V215.722H287.564L287.353 217.487H287.388C287.511 217.389 287.665 217.309 287.85 217.244C288.035 217.18 288.228 217.148 288.428 217.148C288.794 217.148 289.121 217.236 289.407 217.411C289.695 217.584 289.921 217.822 290.085 218.124C290.25 218.425 290.333 218.77 290.333 219.158C290.333 219.539 290.247 219.88 290.076 220.18C289.906 220.478 289.673 220.714 289.375 220.887C289.077 221.059 288.738 221.144 288.358 221.144Z" fill="#A13927"/>
<path d="M317.229 221.062L315.593 215.08H316.329L317.58 219.952H317.638L318.912 215.08H319.73L321.003 219.952H321.062L322.312 215.08H323.048L321.412 221.062H320.664L319.344 216.295H319.297L317.977 221.062H317.229ZM325.321 221.156C324.889 221.156 324.516 221.061 324.202 220.87C323.891 220.677 323.65 220.408 323.481 220.063C323.313 219.717 323.229 219.314 323.229 218.854C323.229 218.394 323.313 217.989 323.481 217.639C323.65 217.286 323.886 217.012 324.188 216.815C324.491 216.616 324.846 216.517 325.251 216.517C325.485 216.517 325.716 216.556 325.943 216.634C326.171 216.712 326.379 216.838 326.566 217.013C326.753 217.187 326.902 217.417 327.013 217.703C327.124 217.989 327.179 218.342 327.179 218.76V219.053H323.72V218.457H326.478C326.478 218.203 326.427 217.978 326.326 217.779C326.227 217.58 326.085 217.423 325.9 217.309C325.716 217.194 325.5 217.136 325.251 217.136C324.976 217.136 324.739 217.204 324.538 217.341C324.34 217.475 324.187 217.65 324.08 217.867C323.972 218.083 323.919 218.314 323.919 218.562V218.959C323.919 219.298 323.977 219.585 324.094 219.821C324.213 220.055 324.378 220.233 324.588 220.356C324.798 220.476 325.043 220.537 325.321 220.537C325.502 220.537 325.666 220.511 325.812 220.461C325.96 220.408 326.087 220.33 326.195 220.227C326.302 220.122 326.385 219.991 326.443 219.836L327.109 220.022C327.039 220.248 326.921 220.447 326.756 220.618C326.59 220.788 326.385 220.92 326.142 221.016C325.899 221.109 325.625 221.156 325.321 221.156ZM330.109 221.156C329.677 221.156 329.304 221.061 328.99 220.87C328.679 220.677 328.438 220.408 328.269 220.063C328.101 219.717 328.018 219.314 328.018 218.854C328.018 218.394 328.101 217.989 328.269 217.639C328.438 217.286 328.674 217.012 328.976 216.815C329.28 216.616 329.634 216.517 330.039 216.517C330.273 216.517 330.504 216.556 330.731 216.634C330.959 216.712 331.167 216.838 331.354 217.013C331.541 217.187 331.69 217.417 331.801 217.703C331.912 217.989 331.967 218.342 331.967 218.76V219.053H328.508V218.457H331.266C331.266 218.203 331.215 217.978 331.114 217.779C331.015 217.58 330.873 217.423 330.688 217.309C330.505 217.194 330.288 217.136 330.039 217.136C329.765 217.136 329.527 217.204 329.326 217.341C329.128 217.475 328.975 217.65 328.868 217.867C328.761 218.083 328.707 218.314 328.707 218.562V218.959C328.707 219.298 328.765 219.585 328.882 219.821C329.001 220.055 329.166 220.233 329.376 220.356C329.586 220.476 329.831 220.537 330.109 220.537C330.29 220.537 330.454 220.511 330.6 220.461C330.748 220.408 330.876 220.33 330.983 220.227C331.09 220.122 331.173 219.991 331.231 219.836L331.897 220.022C331.827 220.248 331.709 220.447 331.544 220.618C331.378 220.788 331.174 220.92 330.93 221.016C330.687 221.109 330.413 221.156 330.109 221.156ZM333.659 219.427L333.647 218.573H333.787L335.75 216.575H336.603L334.512 218.69H334.453L333.659 219.427ZM333.016 221.062V215.08H333.705V221.062H333.016ZM335.867 221.062L334.114 218.842L334.605 218.363L336.744 221.062H335.867ZM341.779 221.144C341.534 221.14 341.289 221.094 341.043 221.004C340.798 220.914 340.574 220.764 340.371 220.551C340.169 220.337 340.006 220.048 339.883 219.684C339.761 219.317 339.699 218.858 339.699 218.305C339.699 217.775 339.749 217.306 339.848 216.897C339.948 216.486 340.092 216.14 340.281 215.86C340.47 215.577 340.697 215.363 340.964 215.217C341.233 215.071 341.536 214.998 341.873 214.998C342.208 214.998 342.506 215.065 342.767 215.199C343.03 215.332 343.244 215.517 343.409 215.754C343.575 215.992 343.682 216.266 343.731 216.575H343.018C342.952 216.307 342.823 216.084 342.632 215.906C342.442 215.729 342.188 215.64 341.873 215.64C341.409 215.64 341.044 215.842 340.777 216.245C340.512 216.648 340.379 217.214 340.377 217.942H340.424C340.533 217.777 340.662 217.636 340.812 217.519C340.964 217.4 341.132 217.309 341.315 217.244C341.498 217.18 341.692 217.148 341.896 217.148C342.239 217.148 342.553 217.234 342.837 217.405C343.121 217.574 343.349 217.809 343.52 218.109C343.692 218.407 343.778 218.749 343.778 219.134C343.778 219.504 343.695 219.843 343.529 220.151C343.364 220.457 343.131 220.7 342.831 220.881C342.533 221.061 342.183 221.148 341.779 221.144ZM341.779 220.502C342.025 220.502 342.245 220.44 342.44 220.318C342.636 220.195 342.791 220.03 342.904 219.824C343.019 219.617 343.076 219.388 343.076 219.134C343.076 218.887 343.021 218.662 342.91 218.46C342.801 218.255 342.65 218.092 342.457 217.972C342.266 217.851 342.048 217.791 341.803 217.791C341.618 217.791 341.445 217.828 341.286 217.902C341.126 217.974 340.986 218.073 340.865 218.2C340.746 218.326 340.653 218.471 340.585 218.635C340.516 218.796 340.482 218.967 340.482 219.146C340.482 219.384 340.538 219.606 340.649 219.812C340.762 220.019 340.916 220.185 341.11 220.312C341.307 220.438 341.53 220.502 341.779 220.502Z" fill="#A13927"/>
</svg>
