<svg width="352" height="224" viewBox="0 0 352 224" fill="none" xmlns="http://www.w3.org/2000/svg">
<path d="M9.50168 13.4844C9.40296 13.4844 9.32618 13.4597 9.27134 13.4103C9.21649 13.3555 9.18907 13.2815 9.18907 13.1882C9.18907 13.095 9.21649 13.0264 9.27134 12.9826C9.32618 12.9332 9.40296 12.9085 9.50168 12.9085H10.5711V8.24405H10.9249L9.73202 9.0338C9.66073 9.0722 9.59217 9.08865 9.52636 9.08316C9.46603 9.07768 9.41393 9.05574 9.37005 9.01735C9.33166 8.97348 9.30424 8.92412 9.28779 8.86927C9.27134 8.80895 9.27408 8.74862 9.29602 8.68829C9.31795 8.62248 9.36457 8.56763 9.43587 8.52376L10.5711 7.77514C10.6424 7.73127 10.711 7.69562 10.7768 7.6682C10.8426 7.64077 10.9084 7.62706 10.9742 7.62706C11.051 7.62706 11.1141 7.65174 11.1634 7.7011C11.2183 7.74498 11.2457 7.81627 11.2457 7.91499V12.9085H12.2329C12.3316 12.9085 12.4084 12.9332 12.4632 12.9826C12.5181 13.0264 12.5455 13.095 12.5455 13.1882C12.5455 13.2869 12.5181 13.361 12.4632 13.4103C12.4084 13.4597 12.3316 13.4844 12.2329 13.4844H9.50168ZM15.6273 13.5584C14.9636 13.5584 14.4591 13.3034 14.1136 12.7933C13.7681 12.2833 13.5953 11.5456 13.5953 10.5804C13.5953 9.93324 13.6721 9.39029 13.8256 8.95154C13.9792 8.5073 14.2068 8.17276 14.5084 7.9479C14.8156 7.72304 15.1885 7.61061 15.6273 7.61061C16.2963 7.61061 16.8009 7.86289 17.1409 8.36745C17.4865 8.86653 17.6592 9.60144 17.6592 10.5722C17.6592 11.2193 17.5824 11.765 17.4289 12.2093C17.2753 12.6535 17.0477 12.9908 16.7461 13.2211C16.4444 13.446 16.0715 13.5584 15.6273 13.5584ZM15.6273 12.9743C16.0879 12.9743 16.428 12.7796 16.6473 12.3902C16.8722 11.9954 16.9846 11.3893 16.9846 10.5722C16.9846 9.74952 16.8722 9.14898 16.6473 8.77055C16.428 8.38665 16.0879 8.1947 15.6273 8.1947C15.1721 8.1947 14.832 8.38665 14.6072 8.77055C14.3823 9.15446 14.2699 9.755 14.2699 10.5722C14.2699 11.3893 14.3823 11.9954 14.6072 12.3902C14.832 12.7796 15.1721 12.9743 15.6273 12.9743ZM20.56 13.5584C19.8964 13.5584 19.3918 13.3034 19.0463 12.7933C18.7008 12.2833 18.528 11.5456 18.528 10.5804C18.528 9.93324 18.6048 9.39029 18.7584 8.95154C18.9119 8.5073 19.1395 8.17276 19.4412 7.9479C19.7483 7.72304 20.1212 7.61061 20.56 7.61061C21.2291 7.61061 21.7336 7.86289 22.0737 8.36745C22.4192 8.86653 22.5919 9.60144 22.5919 10.5722C22.5919 11.2193 22.5152 11.765 22.3616 12.2093C22.208 12.6535 21.9804 12.9908 21.6788 13.2211C21.3772 13.446 21.0042 13.5584 20.56 13.5584ZM20.56 12.9743C21.0207 12.9743 21.3607 12.7796 21.5801 12.3902C21.8049 11.9954 21.9174 11.3893 21.9174 10.5722C21.9174 9.74952 21.8049 9.14898 21.5801 8.77055C21.3607 8.38665 21.0207 8.1947 20.56 8.1947C20.1048 8.1947 19.7647 8.38665 19.5399 8.77055C19.315 9.15446 19.2026 9.755 19.2026 10.5722C19.2026 11.3893 19.315 11.9954 19.5399 12.3902C19.7647 12.7796 20.1048 12.9743 20.56 12.9743Z" fill="#A13927"/>
<path d="M14.7623 51.9622C14.3611 51.9622 14.0066 51.8911 13.6989 51.7489C13.3932 51.6048 13.1546 51.4071 12.9832 51.1559C12.8118 50.9027 12.7271 50.6144 12.729 50.2911C12.7271 50.038 12.7768 49.8043 12.878 49.59C12.9793 49.3738 13.1176 49.1937 13.2929 49.0496C13.4701 48.9035 13.6678 48.811 13.8859 48.772V48.737C13.5996 48.663 13.3717 48.5023 13.2023 48.255C13.0329 48.0057 12.9491 47.7223 12.9511 47.4048C12.9491 47.101 13.026 46.8293 13.1818 46.5898C13.3377 46.3502 13.5519 46.1613 13.8245 46.023C14.0992 45.8848 14.4117 45.8156 14.7623 45.8156C15.109 45.8156 15.4186 45.8848 15.6913 46.023C15.964 46.1613 16.1782 46.3502 16.334 46.5898C16.4918 46.8293 16.5716 47.101 16.5736 47.4048C16.5716 47.7223 16.4849 48.0057 16.3136 48.255C16.1441 48.5023 15.9192 48.663 15.6387 48.737V48.772C15.8549 48.811 16.0497 48.9035 16.223 49.0496C16.3963 49.1937 16.5346 49.3738 16.6378 49.59C16.741 49.8043 16.7936 50.038 16.7956 50.2911C16.7936 50.6144 16.706 50.9027 16.5327 51.1559C16.3613 51.4071 16.1227 51.6048 15.8169 51.7489C15.5131 51.8911 15.1616 51.9622 14.7623 51.9622ZM14.7623 51.3195C15.033 51.3195 15.2667 51.2756 15.4634 51.188C15.6601 51.1004 15.8121 50.9767 15.9192 50.817C16.0263 50.6573 16.0808 50.4703 16.0828 50.2561C16.0808 50.0302 16.0224 49.8305 15.9075 49.6572C15.7926 49.4839 15.6358 49.3475 15.4371 49.2482C15.2404 49.1489 15.0155 49.0992 14.7623 49.0992C14.5072 49.0992 14.2793 49.1489 14.0787 49.2482C13.8801 49.3475 13.7233 49.4839 13.6084 49.6572C13.4954 49.8305 13.4399 50.0302 13.4419 50.2561C13.4399 50.4703 13.4915 50.6573 13.5967 50.817C13.7038 50.9767 13.8567 51.1004 14.0553 51.188C14.254 51.2756 14.4896 51.3195 14.7623 51.3195ZM14.7623 48.4799C14.9765 48.4799 15.1664 48.4371 15.332 48.3514C15.4995 48.2657 15.6309 48.1459 15.7264 47.992C15.8218 47.8382 15.8705 47.658 15.8724 47.4516C15.8705 47.249 15.8228 47.0728 15.7293 46.9228C15.6358 46.7709 15.5063 46.654 15.3407 46.5723C15.1752 46.4885 14.9824 46.4466 14.7623 46.4466C14.5383 46.4466 14.3426 46.4885 14.1751 46.5723C14.0076 46.654 13.8781 46.7709 13.7866 46.9228C13.695 47.0728 13.6502 47.249 13.6522 47.4516C13.6502 47.658 13.696 47.8382 13.7895 47.992C13.8849 48.1459 14.0164 48.2657 14.1839 48.3514C14.3514 48.4371 14.5442 48.4799 14.7623 48.4799ZM19.8667 51.9622C19.4265 51.9622 19.0516 51.8424 18.7419 51.6028C18.4323 51.3613 18.1956 51.0118 18.032 50.5541C17.8684 50.0944 17.7866 49.5394 17.7866 48.8889C17.7866 48.2423 17.8684 47.6902 18.032 47.2325C18.1976 46.7729 18.4352 46.4223 18.7449 46.1808C19.0565 45.9373 19.4304 45.8156 19.8667 45.8156C20.3029 45.8156 20.6759 45.9373 20.9855 46.1808C21.2972 46.4223 21.5348 46.7729 21.6984 47.2325C21.8639 47.6902 21.9467 48.2423 21.9467 48.8889C21.9467 49.5394 21.8649 50.0944 21.7013 50.5541C21.5377 51.0118 21.3011 51.3613 20.9914 51.6028C20.6817 51.8424 20.3068 51.9622 19.8667 51.9622ZM19.8667 51.3195C20.3029 51.3195 20.6418 51.1091 20.8833 50.6885C21.1248 50.2678 21.2455 49.6679 21.2455 48.8889C21.2455 48.3708 21.19 47.9297 21.079 47.5655C20.97 47.2013 20.8122 46.9238 20.6058 46.7329C20.4013 46.5421 20.1549 46.4466 19.8667 46.4466C19.4343 46.4466 19.0964 46.6599 18.8529 47.0864C18.6095 47.511 18.4878 48.1118 18.4878 48.8889C18.4878 49.4069 18.5423 49.8471 18.6514 50.2094C18.7604 50.5716 18.9172 50.8472 19.1217 51.0361C19.3282 51.225 19.5765 51.3195 19.8667 51.3195Z" fill="#A13927"/>
<path d="M14.8324 89.3584C14.587 89.3545 14.3416 89.3078 14.0962 89.2182C13.8508 89.1286 13.6269 88.9777 13.4243 88.7654C13.2218 88.5511 13.0592 88.2619 12.9365 87.8977C12.8138 87.5316 12.7524 87.072 12.7524 86.5188C12.7524 85.9891 12.8021 85.5197 12.9014 85.1107C13.0007 84.6998 13.1448 84.3541 13.3338 84.0737C13.5227 83.7913 13.7505 83.577 14.0174 83.431C14.2861 83.2849 14.589 83.2119 14.9259 83.2119C15.2609 83.2119 15.5589 83.279 15.8198 83.4134C16.0828 83.5459 16.297 83.7309 16.4625 83.9685C16.6281 84.2061 16.7352 84.4797 16.7839 84.7894H16.0711C16.0049 84.5206 15.8763 84.2976 15.6855 84.1204C15.4946 83.9432 15.2414 83.8546 14.9259 83.8546C14.4624 83.8546 14.0972 84.0561 13.8304 84.4593C13.5655 84.8624 13.4321 85.4282 13.4302 86.1566H13.4769C13.586 85.991 13.7155 85.8499 13.8654 85.733C14.0174 85.6142 14.1849 85.5227 14.3679 85.4584C14.551 85.3941 14.7448 85.362 14.9493 85.362C15.292 85.362 15.6056 85.4477 15.89 85.6191C16.1743 85.7885 16.4022 86.0232 16.5736 86.3231C16.7449 86.6211 16.8306 86.9629 16.8306 87.3485C16.8306 87.7186 16.7479 88.0574 16.5823 88.3651C16.4168 88.6709 16.184 88.9144 15.8841 89.0955C15.5861 89.2747 15.2356 89.3623 14.8324 89.3584ZM14.8324 88.7157C15.0778 88.7157 15.2979 88.6544 15.4926 88.5317C15.6894 88.409 15.8442 88.2444 15.9571 88.038C16.0721 87.8315 16.1295 87.6017 16.1295 87.3485C16.1295 87.1012 16.074 86.8762 15.963 86.6737C15.8539 86.4692 15.703 86.3066 15.5102 86.1858C15.3193 86.0651 15.1012 86.0047 14.8558 86.0047C14.6708 86.0047 14.4984 86.0417 14.3387 86.1157C14.179 86.1878 14.0388 86.2871 13.918 86.4137C13.7992 86.5403 13.7057 86.6854 13.6376 86.849C13.5694 87.0106 13.5353 87.181 13.5353 87.3602C13.5353 87.5978 13.5908 87.8198 13.7019 88.0263C13.8148 88.2327 13.9687 88.3992 14.1634 88.5258C14.3601 88.6524 14.5831 88.7157 14.8324 88.7157ZM19.9309 89.3584C19.4908 89.3584 19.1159 89.2386 18.8062 88.9991C18.4965 88.7576 18.2599 88.408 18.0963 87.9503C17.9327 87.4907 17.8509 86.9356 17.8509 86.2851C17.8509 85.6385 17.9327 85.0864 18.0963 84.6287C18.2619 84.1691 18.4995 83.8185 18.8091 83.577C19.1207 83.3336 19.4947 83.2119 19.9309 83.2119C20.3672 83.2119 20.7401 83.3336 21.0498 83.577C21.3614 83.8185 21.599 84.1691 21.7626 84.6287C21.9282 85.0864 22.0109 85.6385 22.0109 86.2851C22.0109 86.9356 21.9291 87.4907 21.7655 87.9503C21.602 88.408 21.3653 88.7576 21.0557 88.9991C20.746 89.2386 20.3711 89.3584 19.9309 89.3584ZM19.9309 88.7157C20.3672 88.7157 20.7061 88.5054 20.9476 88.0847C21.1891 87.664 21.3098 87.0642 21.3098 86.2851C21.3098 85.7671 21.2543 85.326 21.1433 84.9618C21.0342 84.5976 20.8765 84.32 20.67 84.1292C20.4655 83.9383 20.2192 83.8429 19.9309 83.8429C19.4986 83.8429 19.1607 84.0561 18.9172 84.4827C18.6738 84.9072 18.552 85.5081 18.552 86.2851C18.552 86.8032 18.6066 87.2433 18.7156 87.6056C18.8247 87.9678 18.9815 88.2434 19.186 88.4323C19.3924 88.6213 19.6407 88.7157 19.9309 88.7157Z" fill="#A13927"/>
<path d="M12.7057 125.446V124.85L15.3349 120.69H15.7673V121.613H15.4751L13.4886 124.756V124.803H17.0293V125.446H12.7057ZM15.5219 126.673V125.265V124.987V120.69H16.2113V126.673H15.5219ZM20.0755 126.754C19.6354 126.754 19.2605 126.635 18.9508 126.395C18.6411 126.154 18.4045 125.804 18.2409 125.346C18.0773 124.887 17.9955 124.332 17.9955 123.681C17.9955 123.035 18.0773 122.482 18.2409 122.025C18.4065 121.565 18.6441 121.215 18.9537 120.973C19.2653 120.73 19.6393 120.608 20.0755 120.608C20.5118 120.608 20.8848 120.73 21.1944 120.973C21.506 121.215 21.7436 121.565 21.9072 122.025C22.0728 122.482 22.1556 123.035 22.1556 123.681C22.1556 124.332 22.0738 124.887 21.9102 125.346C21.7466 125.804 21.5099 126.154 21.2003 126.395C20.8906 126.635 20.5157 126.754 20.0755 126.754ZM20.0755 126.112C20.5118 126.112 20.8507 125.901 21.0922 125.481C21.3337 125.06 21.4544 124.46 21.4544 123.681C21.4544 123.163 21.3989 122.722 21.2879 122.358C21.1788 121.994 21.0211 121.716 20.8146 121.525C20.6101 121.334 20.3638 121.239 20.0755 121.239C19.6432 121.239 19.3053 121.452 19.0618 121.879C18.8184 122.303 18.6967 122.904 18.6967 123.681C18.6967 124.199 18.7512 124.639 18.8603 125.002C18.9693 125.364 19.1261 125.639 19.3306 125.828C19.537 126.017 19.7853 126.112 20.0755 126.112Z" fill="#A13927"/>
<path d="M12.8459 164.069V163.543L14.8207 161.381C15.0525 161.128 15.2434 160.908 15.3933 160.721C15.5433 160.532 15.6543 160.355 15.7264 160.189C15.8004 160.022 15.8374 159.847 15.8374 159.663C15.8374 159.453 15.7867 159.271 15.6855 159.117C15.5861 158.963 15.4498 158.844 15.2765 158.761C15.1031 158.677 14.9084 158.635 14.6922 158.635C14.4624 158.635 14.2618 158.683 14.0904 158.778C13.921 158.872 13.7895 159.003 13.696 159.173C13.6045 159.342 13.5587 159.541 13.5587 159.769H12.8693C12.8693 159.418 12.9501 159.11 13.1117 158.845C13.2734 158.581 13.4935 158.374 13.772 158.226C14.0524 158.078 14.3669 158.004 14.7156 158.004C15.0661 158.004 15.3768 158.078 15.6475 158.226C15.9182 158.374 16.1305 158.574 16.2843 158.825C16.4382 159.076 16.5151 159.356 16.5151 159.663C16.5151 159.884 16.4752 160.099 16.3953 160.309C16.3174 160.517 16.1811 160.75 15.9864 161.007C15.7935 161.262 15.5258 161.574 15.183 161.942L13.8392 163.379V163.426H16.6203V164.069H12.8459ZM19.7783 164.151C19.3381 164.151 18.9632 164.031 18.6536 163.791C18.3439 163.55 18.1073 163.2 17.9437 162.743C17.7801 162.283 17.6983 161.728 17.6983 161.077C17.6983 160.431 17.7801 159.879 17.9437 159.421C18.1092 158.961 18.3468 158.611 18.6565 158.369C18.9681 158.126 19.342 158.004 19.7783 158.004C20.2145 158.004 20.5875 158.126 20.8972 158.369C21.2088 158.611 21.4464 158.961 21.61 159.421C21.7755 159.879 21.8583 160.431 21.8583 161.077C21.8583 161.728 21.7765 162.283 21.6129 162.743C21.4493 163.2 21.2127 163.55 20.903 163.791C20.5934 164.031 20.2184 164.151 19.7783 164.151ZM19.7783 163.508C20.2145 163.508 20.5534 163.298 20.7949 162.877C21.0364 162.456 21.1572 161.856 21.1572 161.077C21.1572 160.559 21.1017 160.118 20.9907 159.754C20.8816 159.39 20.7238 159.112 20.5174 158.921C20.3129 158.731 20.0665 158.635 19.7783 158.635C19.3459 158.635 19.008 158.848 18.7646 159.275C18.5211 159.699 18.3994 160.3 18.3994 161.077C18.3994 161.595 18.4539 162.036 18.563 162.398C18.6721 162.76 18.8288 163.036 19.0333 163.225C19.2398 163.413 19.4881 163.508 19.7783 163.508Z" fill="#A13927"/>
<path d="M19.7974 201.547C19.3572 201.547 18.9823 201.427 18.6726 201.187C18.363 200.946 18.1263 200.596 17.9627 200.139C17.7991 199.679 17.7174 199.124 17.7174 198.473C17.7174 197.827 17.7991 197.275 17.9627 196.817C18.1283 196.357 18.3659 196.007 18.6756 195.765C18.9872 195.522 19.3611 195.4 19.7974 195.4C20.2336 195.4 20.6066 195.522 20.9162 195.765C21.2279 196.007 21.4655 196.357 21.6291 196.817C21.7946 197.275 21.8774 197.827 21.8774 198.473C21.8774 199.124 21.7956 199.679 21.632 200.139C21.4684 200.596 21.2318 200.946 20.9221 201.187C20.6124 201.427 20.2375 201.547 19.7974 201.547ZM19.7974 200.904C20.2336 200.904 20.5725 200.694 20.814 200.273C21.0555 199.852 21.1762 199.252 21.1762 198.473C21.1762 197.955 21.1207 197.514 21.0097 197.15C20.9007 196.786 20.7429 196.508 20.5365 196.317C20.332 196.127 20.0856 196.031 19.7974 196.031C19.365 196.031 19.0271 196.244 18.7836 196.671C18.5402 197.095 18.4185 197.696 18.4185 198.473C18.4185 198.991 18.473 199.432 18.5821 199.794C18.6911 200.156 18.8479 200.432 19.0524 200.621C19.2589 200.809 19.5072 200.904 19.7974 200.904Z" fill="#A13927"/>
<line x1="26.6543" y1="9.25488" x2="344.238" y2="9.25488" stroke="#A13927" stroke-width="0.685547" stroke-dasharray="1.37"/>
<line x1="26.6543" y1="47.1208" x2="344.238" y2="47.1208" stroke="#A13927" stroke-width="0.685547" stroke-dasharray="1.37"/>
<line x1="26.6543" y1="84.9868" x2="344.238" y2="84.9868" stroke="#A13927" stroke-width="0.685547" stroke-dasharray="1.37"/>
<line x1="26.6543" y1="122.853" x2="344.238" y2="122.853" stroke="#A13927" stroke-width="0.685547" stroke-dasharray="1.37"/>
<line x1="26.6543" y1="160.719" x2="344.238" y2="160.719" stroke="#A13927" stroke-width="0.685547" stroke-dasharray="1.37"/>
<line x1="26.6543" y1="198.585" x2="344.238" y2="198.585" stroke="black" stroke-opacity="0.5" stroke-width="0.685547"/>
<line x1="26.3115" y1="198.928" x2="26.3115" y2="9.59766" stroke="#A13927" stroke-width="0.685547" stroke-dasharray="1.37"/>
<line x1="79.2422" y1="198.928" x2="79.2422" y2="9.59766" stroke="#A13927" stroke-width="0.685547" stroke-dasharray="1.37"/>
<line x1="132.173" y1="198.928" x2="132.173" y2="9.59766" stroke="#A13927" stroke-width="0.685547" stroke-dasharray="1.37"/>
<line x1="185.104" y1="198.928" x2="185.104" y2="9.59766" stroke="#A13927" stroke-width="0.685547" stroke-dasharray="1.37"/>
<line x1="238.034" y1="198.928" x2="238.034" y2="9.59766" stroke="#A13927" stroke-width="0.685547" stroke-dasharray="1.37"/>
<line x1="290.965" y1="198.928" x2="290.965" y2="9.59766" stroke="#A13927" stroke-width="0.685547" stroke-dasharray="1.37"/>
<line x1="343.895" y1="198.928" x2="343.895" y2="9.59766" stroke="#A13927" stroke-width="0.685547" stroke-dasharray="1.37"/>
<path d="M40.071 210.094L38.435 204.111H39.1712L40.4215 208.984H40.4799L41.7537 204.111H42.5716L43.8454 208.984H43.9038L45.1541 204.111H45.8903L44.2543 210.094H43.5065L42.186 205.326H42.1393L40.8188 210.094H40.071ZM48.1631 210.187C47.7308 210.187 47.3578 210.092 47.0442 209.901C46.7326 209.708 46.4921 209.439 46.3227 209.095C46.1552 208.748 46.0714 208.345 46.0714 207.885C46.0714 207.426 46.1552 207.02 46.3227 206.67C46.4921 206.317 46.7278 206.043 47.0296 205.846C47.3335 205.647 47.6879 205.548 48.093 205.548C48.3267 205.548 48.5575 205.587 48.7854 205.665C49.0132 205.743 49.2207 205.869 49.4076 206.045C49.5946 206.218 49.7436 206.448 49.8546 206.734C49.9656 207.02 50.0211 207.373 50.0211 207.792V208.084H46.5622V207.488H49.32C49.32 207.235 49.2694 207.009 49.1681 206.81C49.0688 206.611 48.9266 206.455 48.7416 206.34C48.5585 206.225 48.3423 206.167 48.093 206.167C47.8184 206.167 47.5808 206.236 47.3802 206.372C47.1816 206.506 47.0287 206.682 46.9216 206.898C46.8144 207.114 46.7609 207.346 46.7609 207.593V207.99C46.7609 208.329 46.8193 208.617 46.9362 208.852C47.055 209.086 47.2195 209.264 47.4299 209.387C47.6402 209.508 47.8846 209.568 48.1631 209.568C48.3443 209.568 48.5079 209.543 48.6539 209.492C48.8019 209.439 48.9295 209.361 49.0366 209.258C49.1437 209.153 49.2265 209.023 49.2849 208.867L49.951 209.054C49.8809 209.28 49.7631 209.478 49.5975 209.65C49.432 209.819 49.2275 209.952 48.984 210.047C48.7406 210.14 48.467 210.187 48.1631 210.187ZM52.9512 210.187C52.5189 210.187 52.1459 210.092 51.8324 209.901C51.5208 209.708 51.2802 209.439 51.1108 209.095C50.9433 208.748 50.8596 208.345 50.8596 207.885C50.8596 207.426 50.9433 207.02 51.1108 206.67C51.2802 206.317 51.5159 206.043 51.8178 205.846C52.1216 205.647 52.476 205.548 52.8811 205.548C53.1148 205.548 53.3456 205.587 53.5735 205.665C53.8014 205.743 54.0088 205.869 54.1958 206.045C54.3827 206.218 54.5317 206.448 54.6427 206.734C54.7537 207.02 54.8092 207.373 54.8092 207.792V208.084H51.3503V207.488H54.1081C54.1081 207.235 54.0575 207.009 53.9562 206.81C53.8569 206.611 53.7147 206.455 53.5297 206.34C53.3466 206.225 53.1304 206.167 52.8811 206.167C52.6065 206.167 52.3689 206.236 52.1683 206.372C51.9697 206.506 51.8168 206.682 51.7097 206.898C51.6026 207.114 51.549 207.346 51.549 207.593V207.99C51.549 208.329 51.6074 208.617 51.7243 208.852C51.8431 209.086 52.0076 209.264 52.218 209.387C52.4283 209.508 52.6727 209.568 52.9512 209.568C53.1324 209.568 53.296 209.543 53.442 209.492C53.5901 209.439 53.7176 209.361 53.8247 209.258C53.9319 209.153 54.0146 209.023 54.0731 208.867L54.7391 209.054C54.669 209.28 54.5512 209.478 54.3856 209.65C54.2201 209.819 54.0156 209.952 53.7722 210.047C53.5287 210.14 53.2551 210.187 52.9512 210.187ZM56.5007 208.458L56.489 207.605H56.6292L58.5924 205.607H59.4454L57.3537 207.722H57.2953L56.5007 208.458ZM55.858 210.094V204.111H56.5474V210.094H55.858ZM58.7093 210.094L56.9564 207.874L57.4472 207.394L59.5857 210.094H58.7093ZM64.7382 204.111V210.094H64.0137V204.87H63.9787L62.518 205.84V205.104L64.0137 204.111H64.7382Z" fill="#A13927"/>
<path d="M92.8614 210.094L91.2255 204.111H91.9616L93.212 208.984H93.2704L94.5441 204.111H95.3621L96.6358 208.984H96.6942L97.9446 204.111H98.6808L97.0448 210.094H96.2969L94.9765 205.326H94.9297L93.6093 210.094H92.8614ZM100.954 210.187C100.521 210.187 100.148 210.092 99.8347 209.901C99.5231 209.708 99.2826 209.439 99.1131 209.095C98.9456 208.748 98.8619 208.345 98.8619 207.885C98.8619 207.426 98.9456 207.02 99.1131 206.67C99.2826 206.317 99.5182 206.043 99.8201 205.846C100.124 205.647 100.478 205.548 100.883 205.548C101.117 205.548 101.348 205.587 101.576 205.665C101.804 205.743 102.011 205.869 102.198 206.045C102.385 206.218 102.534 206.448 102.645 206.734C102.756 207.02 102.812 207.373 102.812 207.792V208.084H99.3527V207.488H102.11C102.11 207.235 102.06 207.009 101.959 206.81C101.859 206.611 101.717 206.455 101.532 206.34C101.349 206.225 101.133 206.167 100.883 206.167C100.609 206.167 100.371 206.236 100.171 206.372C99.972 206.506 99.8191 206.682 99.712 206.898C99.6049 207.114 99.5513 207.346 99.5513 207.593V207.99C99.5513 208.329 99.6098 208.617 99.7266 208.852C99.8454 209.086 100.01 209.264 100.22 209.387C100.431 209.508 100.675 209.568 100.954 209.568C101.135 209.568 101.298 209.543 101.444 209.492C101.592 209.439 101.72 209.361 101.827 209.258C101.934 209.153 102.017 209.023 102.075 208.867L102.741 209.054C102.671 209.28 102.554 209.478 102.388 209.65C102.222 209.819 102.018 209.952 101.775 210.047C101.531 210.14 101.257 210.187 100.954 210.187ZM105.742 210.187C105.309 210.187 104.936 210.092 104.623 209.901C104.311 209.708 104.071 209.439 103.901 209.095C103.734 208.748 103.65 208.345 103.65 207.885C103.65 207.426 103.734 207.02 103.901 206.67C104.071 206.317 104.306 206.043 104.608 205.846C104.912 205.647 105.267 205.548 105.672 205.548C105.905 205.548 106.136 205.587 106.364 205.665C106.592 205.743 106.799 205.869 106.986 206.045C107.173 206.218 107.322 206.448 107.433 206.734C107.544 207.02 107.6 207.373 107.6 207.792V208.084H104.141V207.488H106.899C106.899 207.235 106.848 207.009 106.747 206.81C106.647 206.611 106.505 206.455 106.32 206.34C106.137 206.225 105.921 206.167 105.672 206.167C105.397 206.167 105.159 206.236 104.959 206.372C104.76 206.506 104.607 206.682 104.5 206.898C104.393 207.114 104.339 207.346 104.339 207.593V207.99C104.339 208.329 104.398 208.617 104.515 208.852C104.634 209.086 104.798 209.264 105.008 209.387C105.219 209.508 105.463 209.568 105.742 209.568C105.923 209.568 106.086 209.543 106.233 209.492C106.381 209.439 106.508 209.361 106.615 209.258C106.722 209.153 106.805 209.023 106.864 208.867L107.53 209.054C107.459 209.28 107.342 209.478 107.176 209.65C107.011 209.819 106.806 209.952 106.563 210.047C106.319 210.14 106.046 210.187 105.742 210.187ZM109.291 208.458L109.279 207.605H109.42L111.383 205.607H112.236L110.144 207.722H110.086L109.291 208.458ZM108.648 210.094V204.111H109.338V210.094H108.648ZM111.5 210.094L109.747 207.874L110.238 207.394L112.376 210.094H111.5ZM115.425 210.094V209.568L117.4 207.406C117.632 207.153 117.823 206.933 117.973 206.746C118.123 206.557 118.234 206.38 118.306 206.214C118.38 206.047 118.417 205.871 118.417 205.688C118.417 205.478 118.366 205.296 118.265 205.142C118.166 204.988 118.029 204.869 117.856 204.786C117.683 204.702 117.488 204.66 117.272 204.66C117.042 204.66 116.841 204.708 116.67 204.803C116.5 204.897 116.369 205.028 116.275 205.198C116.184 205.367 116.138 205.566 116.138 205.794H115.449C115.449 205.443 115.53 205.135 115.691 204.87C115.853 204.605 116.073 204.399 116.351 204.251C116.632 204.103 116.946 204.029 117.295 204.029C117.646 204.029 117.956 204.103 118.227 204.251C118.498 204.399 118.71 204.599 118.864 204.85C119.018 205.101 119.095 205.381 119.095 205.688C119.095 205.908 119.055 206.124 118.975 206.334C118.897 206.542 118.761 206.775 118.566 207.032C118.373 207.287 118.105 207.599 117.762 207.967L116.419 209.404V209.451H119.2V210.094H115.425Z" fill="#A13927"/>
<path d="M146.102 210.094L144.466 204.111H145.202L146.452 208.984H146.511L147.784 204.111H148.602L149.876 208.984H149.934L151.185 204.111H151.921L150.285 210.094H149.537L148.217 205.326H148.17L146.849 210.094H146.102ZM154.194 210.187C153.761 210.187 153.388 210.092 153.075 209.901C152.763 209.708 152.523 209.439 152.353 209.095C152.186 208.748 152.102 208.345 152.102 207.885C152.102 207.426 152.186 207.02 152.353 206.67C152.523 206.317 152.758 206.043 153.06 205.846C153.364 205.647 153.719 205.548 154.124 205.548C154.357 205.548 154.588 205.587 154.816 205.665C155.044 205.743 155.251 205.869 155.438 206.045C155.625 206.218 155.774 206.448 155.885 206.734C155.996 207.02 156.052 207.373 156.052 207.792V208.084H152.593V207.488H155.351C155.351 207.235 155.3 207.009 155.199 206.81C155.099 206.611 154.957 206.455 154.772 206.34C154.589 206.225 154.373 206.167 154.124 206.167C153.849 206.167 153.611 206.236 153.411 206.372C153.212 206.506 153.059 206.682 152.952 206.898C152.845 207.114 152.791 207.346 152.791 207.593V207.99C152.791 208.329 152.85 208.617 152.967 208.852C153.086 209.086 153.25 209.264 153.46 209.387C153.671 209.508 153.915 209.568 154.194 209.568C154.375 209.568 154.538 209.543 154.685 209.492C154.833 209.439 154.96 209.361 155.067 209.258C155.174 209.153 155.257 209.023 155.316 208.867L155.982 209.054C155.911 209.28 155.794 209.478 155.628 209.65C155.463 209.819 155.258 209.952 155.015 210.047C154.771 210.14 154.498 210.187 154.194 210.187ZM158.982 210.187C158.549 210.187 158.177 210.092 157.863 209.901C157.551 209.708 157.311 209.439 157.141 209.095C156.974 208.748 156.89 208.345 156.89 207.885C156.89 207.426 156.974 207.02 157.141 206.67C157.311 206.317 157.546 206.043 157.848 205.846C158.152 205.647 158.507 205.548 158.912 205.548C159.145 205.548 159.376 205.587 159.604 205.665C159.832 205.743 160.039 205.869 160.226 206.045C160.413 206.218 160.562 206.448 160.673 206.734C160.784 207.02 160.84 207.373 160.84 207.792V208.084H157.381V207.488H160.139C160.139 207.235 160.088 207.009 159.987 206.81C159.887 206.611 159.745 206.455 159.56 206.34C159.377 206.225 159.161 206.167 158.912 206.167C158.637 206.167 158.4 206.236 158.199 206.372C158 206.506 157.847 206.682 157.74 206.898C157.633 207.114 157.58 207.346 157.58 207.593V207.99C157.58 208.329 157.638 208.617 157.755 208.852C157.874 209.086 158.038 209.264 158.249 209.387C158.459 209.508 158.703 209.568 158.982 209.568C159.163 209.568 159.327 209.543 159.473 209.492C159.621 209.439 159.748 209.361 159.855 209.258C159.962 209.153 160.045 209.023 160.104 208.867L160.77 209.054C160.7 209.28 160.582 209.478 160.416 209.65C160.251 209.819 160.046 209.952 159.803 210.047C159.559 210.14 159.286 210.187 158.982 210.187ZM162.531 208.458L162.52 207.605H162.66L164.623 205.607H165.476L163.384 207.722H163.326L162.531 208.458ZM161.889 210.094V204.111H162.578V210.094H161.889ZM164.74 210.094L162.987 207.874L163.478 207.394L165.616 210.094H164.74ZM170.687 210.176C170.301 210.176 169.958 210.109 169.656 209.977C169.356 209.844 169.117 209.66 168.94 209.425C168.765 209.187 168.669 208.912 168.654 208.598H169.39C169.405 208.791 169.472 208.957 169.589 209.098C169.705 209.236 169.858 209.343 170.047 209.419C170.236 209.495 170.446 209.533 170.675 209.533C170.932 209.533 171.16 209.488 171.359 209.398C171.558 209.309 171.713 209.184 171.826 209.025C171.939 208.865 171.996 208.68 171.996 208.469C171.996 208.249 171.941 208.056 171.832 207.888C171.723 207.719 171.563 207.586 171.353 207.491C171.143 207.395 170.886 207.348 170.582 207.348H170.103V206.705H170.582C170.819 206.705 171.028 206.662 171.207 206.576C171.388 206.491 171.529 206.37 171.631 206.214C171.734 206.058 171.785 205.875 171.785 205.665C171.785 205.462 171.741 205.286 171.651 205.136C171.561 204.986 171.435 204.869 171.271 204.786C171.11 204.702 170.919 204.66 170.699 204.66C170.492 204.66 170.297 204.698 170.114 204.774C169.933 204.848 169.785 204.956 169.67 205.098C169.555 205.238 169.493 205.408 169.483 205.607H168.782C168.794 205.293 168.888 205.018 169.066 204.783C169.243 204.545 169.475 204.36 169.761 204.228C170.049 204.095 170.366 204.029 170.71 204.029C171.08 204.029 171.398 204.104 171.663 204.254C171.928 204.402 172.131 204.598 172.273 204.841C172.415 205.085 172.487 205.348 172.487 205.63C172.487 205.967 172.398 206.254 172.221 206.492C172.045 206.729 171.807 206.894 171.505 206.985V207.032C171.883 207.094 172.178 207.255 172.39 207.514C172.602 207.771 172.709 208.09 172.709 208.469C172.709 208.795 172.62 209.087 172.443 209.346C172.267 209.603 172.028 209.806 171.724 209.954C171.42 210.102 171.075 210.176 170.687 210.176Z" fill="#A13927"/>
<path d="M199.45 210.094L197.814 204.111H198.551L199.801 208.984H199.859L201.133 204.111H201.951L203.225 208.984H203.283L204.534 204.111H205.27L203.634 210.094H202.886L201.565 205.326H201.519L200.198 210.094H199.45ZM207.543 210.187C207.11 210.187 206.737 210.092 206.424 209.901C206.112 209.708 205.872 209.439 205.702 209.095C205.535 208.748 205.451 208.345 205.451 207.885C205.451 207.426 205.535 207.02 205.702 206.67C205.872 206.317 206.107 206.043 206.409 205.846C206.713 205.647 207.067 205.548 207.472 205.548C207.706 205.548 207.937 205.587 208.165 205.665C208.393 205.743 208.6 205.869 208.787 206.045C208.974 206.218 209.123 206.448 209.234 206.734C209.345 207.02 209.401 207.373 209.401 207.792V208.084H205.942V207.488H208.699C208.699 207.235 208.649 207.009 208.547 206.81C208.448 206.611 208.306 206.455 208.121 206.34C207.938 206.225 207.722 206.167 207.472 206.167C207.198 206.167 206.96 206.236 206.76 206.372C206.561 206.506 206.408 206.682 206.301 206.898C206.194 207.114 206.14 207.346 206.14 207.593V207.99C206.14 208.329 206.199 208.617 206.316 208.852C206.434 209.086 206.599 209.264 206.809 209.387C207.02 209.508 207.264 209.568 207.543 209.568C207.724 209.568 207.887 209.543 208.033 209.492C208.181 209.439 208.309 209.361 208.416 209.258C208.523 209.153 208.606 209.023 208.664 208.867L209.33 209.054C209.26 209.28 209.142 209.478 208.977 209.65C208.811 209.819 208.607 209.952 208.363 210.047C208.12 210.14 207.846 210.187 207.543 210.187ZM212.331 210.187C211.898 210.187 211.525 210.092 211.212 209.901C210.9 209.708 210.66 209.439 210.49 209.095C210.323 208.748 210.239 208.345 210.239 207.885C210.239 207.426 210.323 207.02 210.49 206.67C210.66 206.317 210.895 206.043 211.197 205.846C211.501 205.647 211.855 205.548 212.261 205.548C212.494 205.548 212.725 205.587 212.953 205.665C213.181 205.743 213.388 205.869 213.575 206.045C213.762 206.218 213.911 206.448 214.022 206.734C214.133 207.02 214.189 207.373 214.189 207.792V208.084H210.73V207.488H213.487C213.487 207.235 213.437 207.009 213.336 206.81C213.236 206.611 213.094 206.455 212.909 206.34C212.726 206.225 212.51 206.167 212.261 206.167C211.986 206.167 211.748 206.236 211.548 206.372C211.349 206.506 211.196 206.682 211.089 206.898C210.982 207.114 210.928 207.346 210.928 207.593V207.99C210.928 208.329 210.987 208.617 211.104 208.852C211.222 209.086 211.387 209.264 211.597 209.387C211.808 209.508 212.052 209.568 212.331 209.568C212.512 209.568 212.675 209.543 212.821 209.492C212.969 209.439 213.097 209.361 213.204 209.258C213.311 209.153 213.394 209.023 213.452 208.867L214.119 209.054C214.048 209.28 213.931 209.478 213.765 209.65C213.599 209.819 213.395 209.952 213.152 210.047C212.908 210.14 212.634 210.187 212.331 210.187ZM215.88 208.458L215.868 207.605H216.009L217.972 205.607H218.825L216.733 207.722H216.675L215.88 208.458ZM215.237 210.094V204.111H215.927V210.094H215.237ZM218.089 210.094L216.336 207.874L216.827 207.394L218.965 210.094H218.089ZM221.874 208.867V208.271L224.503 204.111H224.936V205.034H224.643L222.657 208.177V208.224H226.198V208.867H221.874ZM224.69 210.094V208.686V208.408V204.111H225.38V210.094H224.69Z" fill="#A13927"/>
<path d="M252.956 210.094L251.32 204.111H252.056L253.306 208.984H253.365L254.639 204.111H255.456L256.73 208.984H256.789L258.039 204.111H258.775L257.139 210.094H256.391L255.071 205.326H255.024L253.704 210.094H252.956ZM261.048 210.187C260.616 210.187 260.243 210.092 259.929 209.901C259.617 209.708 259.377 209.439 259.208 209.095C259.04 208.748 258.956 208.345 258.956 207.885C258.956 207.426 259.04 207.02 259.208 206.67C259.377 206.317 259.613 206.043 259.915 205.846C260.218 205.647 260.573 205.548 260.978 205.548C261.212 205.548 261.442 205.587 261.67 205.665C261.898 205.743 262.106 205.869 262.292 206.045C262.479 206.218 262.628 206.448 262.739 206.734C262.85 207.02 262.906 207.373 262.906 207.792V208.084H259.447V207.488H262.205C262.205 207.235 262.154 207.009 262.053 206.81C261.954 206.611 261.811 206.455 261.626 206.34C261.443 206.225 261.227 206.167 260.978 206.167C260.703 206.167 260.466 206.236 260.265 206.372C260.066 206.506 259.914 206.682 259.806 206.898C259.699 207.114 259.646 207.346 259.646 207.593V207.99C259.646 208.329 259.704 208.617 259.821 208.852C259.94 209.086 260.104 209.264 260.315 209.387C260.525 209.508 260.769 209.568 261.048 209.568C261.229 209.568 261.393 209.543 261.539 209.492C261.687 209.439 261.814 209.361 261.921 209.258C262.029 209.153 262.111 209.023 262.17 208.867L262.836 209.054C262.766 209.28 262.648 209.478 262.482 209.65C262.317 209.819 262.112 209.952 261.869 210.047C261.625 210.14 261.352 210.187 261.048 210.187ZM265.836 210.187C265.404 210.187 265.031 210.092 264.717 209.901C264.406 209.708 264.165 209.439 263.996 209.095C263.828 208.748 263.744 208.345 263.744 207.885C263.744 207.426 263.828 207.02 263.996 206.67C264.165 206.317 264.401 206.043 264.703 205.846C265.006 205.647 265.361 205.548 265.766 205.548C266 205.548 266.23 205.587 266.458 205.665C266.686 205.743 266.894 205.869 267.081 206.045C267.268 206.218 267.417 206.448 267.528 206.734C267.639 207.02 267.694 207.373 267.694 207.792V208.084H264.235V207.488H266.993C266.993 207.235 266.942 207.009 266.841 206.81C266.742 206.611 266.6 206.455 266.415 206.34C266.231 206.225 266.015 206.167 265.766 206.167C265.491 206.167 265.254 206.236 265.053 206.372C264.855 206.506 264.702 206.682 264.595 206.898C264.487 207.114 264.434 207.346 264.434 207.593V207.99C264.434 208.329 264.492 208.617 264.609 208.852C264.728 209.086 264.893 209.264 265.103 209.387C265.313 209.508 265.558 209.568 265.836 209.568C266.017 209.568 266.181 209.543 266.327 209.492C266.475 209.439 266.602 209.361 266.71 209.258C266.817 209.153 266.899 209.023 266.958 208.867L267.624 209.054C267.554 209.28 267.436 209.478 267.27 209.65C267.105 209.819 266.9 209.952 266.657 210.047C266.414 210.14 266.14 210.187 265.836 210.187ZM269.386 208.458L269.374 207.605H269.514L271.477 205.607H272.33L270.239 207.722H270.18L269.386 208.458ZM268.743 210.094V204.111H269.432V210.094H268.743ZM271.594 210.094L269.841 207.874L270.332 207.394L272.471 210.094H271.594ZM277.389 210.176C277.047 210.176 276.738 210.107 276.463 209.971C276.189 209.835 275.969 209.648 275.803 209.41C275.638 209.173 275.547 208.902 275.531 208.598H276.233C276.26 208.869 276.382 209.093 276.601 209.27C276.821 209.445 277.084 209.533 277.389 209.533C277.635 209.533 277.853 209.475 278.044 209.36C278.237 209.246 278.388 209.088 278.497 208.887C278.608 208.685 278.663 208.456 278.663 208.201C278.663 207.94 278.606 207.707 278.491 207.502C278.378 207.296 278.222 207.133 278.023 207.015C277.825 206.896 277.598 206.835 277.343 206.834C277.16 206.832 276.972 206.86 276.779 206.918C276.586 206.975 276.427 207.048 276.303 207.137L275.625 207.056L275.987 204.111H279.095V204.753H276.595L276.384 206.518H276.419C276.542 206.421 276.696 206.34 276.881 206.276C277.066 206.211 277.259 206.179 277.459 206.179C277.826 206.179 278.152 206.267 278.438 206.442C278.726 206.615 278.952 206.853 279.116 207.155C279.281 207.457 279.364 207.801 279.364 208.189C279.364 208.571 279.279 208.912 279.107 209.211C278.938 209.509 278.704 209.745 278.406 209.918C278.108 210.09 277.769 210.176 277.389 210.176Z" fill="#A13927"/>
<path d="M306.26 210.094L304.624 204.111H305.36L306.611 208.984H306.669L307.943 204.111H308.761L310.035 208.984H310.093L311.343 204.111H312.08L310.444 210.094H309.696L308.375 205.326H308.329L307.008 210.094H306.26ZM314.352 210.187C313.92 210.187 313.547 210.092 313.233 209.901C312.922 209.708 312.681 209.439 312.512 209.095C312.344 208.748 312.261 208.345 312.261 207.885C312.261 207.426 312.344 207.02 312.512 206.67C312.681 206.317 312.917 206.043 313.219 205.846C313.523 205.647 313.877 205.548 314.282 205.548C314.516 205.548 314.747 205.587 314.975 205.665C315.202 205.743 315.41 205.869 315.597 206.045C315.784 206.218 315.933 206.448 316.044 206.734C316.155 207.02 316.21 207.373 316.21 207.792V208.084H312.751V207.488H315.509C315.509 207.235 315.459 207.009 315.357 206.81C315.258 206.611 315.116 206.455 314.931 206.34C314.748 206.225 314.532 206.167 314.282 206.167C314.008 206.167 313.77 206.236 313.569 206.372C313.371 206.506 313.218 206.682 313.111 206.898C313.004 207.114 312.95 207.346 312.95 207.593V207.99C312.95 208.329 313.009 208.617 313.125 208.852C313.244 209.086 313.409 209.264 313.619 209.387C313.829 209.508 314.074 209.568 314.352 209.568C314.533 209.568 314.697 209.543 314.843 209.492C314.991 209.439 315.119 209.361 315.226 209.258C315.333 209.153 315.416 209.023 315.474 208.867L316.14 209.054C316.07 209.28 315.952 209.478 315.787 209.65C315.621 209.819 315.417 209.952 315.173 210.047C314.93 210.14 314.656 210.187 314.352 210.187ZM319.14 210.187C318.708 210.187 318.335 210.092 318.022 209.901C317.71 209.708 317.469 209.439 317.3 209.095C317.133 208.748 317.049 208.345 317.049 207.885C317.049 207.426 317.133 207.02 317.3 206.67C317.469 206.317 317.705 206.043 318.007 205.846C318.311 205.647 318.665 205.548 319.07 205.548C319.304 205.548 319.535 205.587 319.763 205.665C319.991 205.743 320.198 205.869 320.385 206.045C320.572 206.218 320.721 206.448 320.832 206.734C320.943 207.02 320.998 207.373 320.998 207.792V208.084H317.54V207.488H320.297C320.297 207.235 320.247 207.009 320.145 206.81C320.046 206.611 319.904 206.455 319.719 206.34C319.536 206.225 319.32 206.167 319.07 206.167C318.796 206.167 318.558 206.236 318.358 206.372C318.159 206.506 318.006 206.682 317.899 206.898C317.792 207.114 317.738 207.346 317.738 207.593V207.99C317.738 208.329 317.797 208.617 317.914 208.852C318.032 209.086 318.197 209.264 318.407 209.387C318.618 209.508 318.862 209.568 319.14 209.568C319.322 209.568 319.485 209.543 319.631 209.492C319.779 209.439 319.907 209.361 320.014 209.258C320.121 209.153 320.204 209.023 320.262 208.867L320.928 209.054C320.858 209.28 320.74 209.478 320.575 209.65C320.409 209.819 320.205 209.952 319.961 210.047C319.718 210.14 319.444 210.187 319.14 210.187ZM322.69 208.458L322.678 207.605H322.818L324.782 205.607H325.635L323.543 207.722H323.485L322.69 208.458ZM322.047 210.094V204.111H322.737V210.094H322.047ZM324.898 210.094L323.146 207.874L323.636 207.394L325.775 210.094H324.898ZM330.811 210.176C330.565 210.172 330.32 210.125 330.074 210.035C329.829 209.946 329.605 209.795 329.403 209.583C329.2 209.368 329.037 209.079 328.915 208.715C328.792 208.349 328.731 207.889 328.731 207.336C328.731 206.806 328.78 206.337 328.88 205.928C328.979 205.517 329.123 205.171 329.312 204.891C329.501 204.608 329.729 204.394 329.996 204.248C330.264 204.102 330.567 204.029 330.904 204.029C331.239 204.029 331.537 204.096 331.798 204.231C332.061 204.363 332.275 204.548 332.441 204.786C332.606 205.023 332.713 205.297 332.762 205.607H332.049C331.983 205.338 331.855 205.115 331.664 204.938C331.473 204.76 331.22 204.672 330.904 204.672C330.441 204.672 330.075 204.873 329.809 205.276C329.544 205.68 329.41 206.245 329.408 206.974H329.455C329.564 206.808 329.694 206.667 329.844 206.55C329.996 206.431 330.163 206.34 330.346 206.276C330.529 206.211 330.723 206.179 330.927 206.179C331.27 206.179 331.584 206.265 331.868 206.436C332.152 206.606 332.38 206.84 332.552 207.14C332.723 207.438 332.809 207.78 332.809 208.166C332.809 208.536 332.726 208.875 332.561 209.182C332.395 209.488 332.162 209.732 331.862 209.913C331.564 210.092 331.214 210.179 330.811 210.176ZM330.811 209.533C331.056 209.533 331.276 209.471 331.471 209.349C331.668 209.226 331.822 209.062 331.935 208.855C332.05 208.649 332.108 208.419 332.108 208.166C332.108 207.918 332.052 207.693 331.941 207.491C331.832 207.286 331.681 207.124 331.488 207.003C331.298 206.882 331.079 206.822 330.834 206.822C330.649 206.822 330.477 206.859 330.317 206.933C330.157 207.005 330.017 207.104 329.896 207.231C329.777 207.357 329.684 207.502 329.616 207.666C329.548 207.828 329.514 207.998 329.514 208.177C329.514 208.415 329.569 208.637 329.68 208.843C329.793 209.05 329.947 209.216 330.142 209.343C330.338 209.47 330.561 209.533 330.811 209.533Z" fill="#A13927"/>
</svg>
