<svg width="329" height="57" viewBox="0 0 329 57" fill="none" xmlns="http://www.w3.org/2000/svg">
<rect x="1" y="1" width="327" height="55" rx="12" fill="white" stroke="#B22335"/>
<circle cx="300" cy="29" r="10" transform="rotate(-90 300 29)" fill="white" stroke="#B22335"/>
<path d="M292.5 29C292.5 24.8579 295.858 21.5 300 21.5C304.142 21.5 307.5 24.8579 307.5 29C307.5 33.1421 304.142 36.5 300 36.5C295.858 36.5 292.5 33.1421 292.5 29Z" fill="#B22335" stroke="#B22335"/>
<path d="M21.048 36.112C20.8347 36.112 20.6693 36.0533 20.552 35.936C20.4453 35.808 20.392 35.6373 20.392 35.424V25.296C20.392 25.072 20.4453 24.9013 20.552 24.784C20.6693 24.6667 20.8347 24.608 21.048 24.608C21.2613 24.608 21.4213 24.6667 21.528 24.784C21.6453 24.9013 21.704 25.072 21.704 25.296V29.712H28.472V25.296C28.472 25.072 28.5253 24.9013 28.632 24.784C28.7493 24.6667 28.9147 24.608 29.128 24.608C29.3413 24.608 29.5013 24.6667 29.608 24.784C29.7253 24.9013 29.784 25.072 29.784 25.296V35.424C29.784 35.6373 29.7253 35.808 29.608 35.936C29.5013 36.0533 29.3413 36.112 29.128 36.112C28.9147 36.112 28.7493 36.0533 28.632 35.936C28.5253 35.808 28.472 35.6373 28.472 35.424V30.848H21.704V35.424C21.704 35.6373 21.6507 35.808 21.544 35.936C21.4373 36.0533 21.272 36.112 21.048 36.112ZM33.0279 36.08C32.8145 36.08 32.6545 36.0213 32.5479 35.904C32.4412 35.776 32.3879 35.6 32.3879 35.376V28.832C32.3879 28.608 32.4412 28.4373 32.5479 28.32C32.6545 28.2027 32.8145 28.144 33.0279 28.144C33.2305 28.144 33.3905 28.2027 33.5079 28.32C33.6252 28.4373 33.6839 28.608 33.6839 28.832V35.376C33.6839 35.6 33.6252 35.776 33.5079 35.904C33.4012 36.0213 33.2412 36.08 33.0279 36.08ZM33.0279 26.352C32.7612 26.352 32.5532 26.2827 32.4039 26.144C32.2545 25.9947 32.1799 25.7973 32.1799 25.552C32.1799 25.296 32.2545 25.104 32.4039 24.976C32.5532 24.8373 32.7612 24.768 33.0279 24.768C33.3052 24.768 33.5132 24.8373 33.6519 24.976C33.8012 25.104 33.8759 25.296 33.8759 25.552C33.8759 25.7973 33.8012 25.9947 33.6519 26.144C33.5132 26.2827 33.3052 26.352 33.0279 26.352ZM36.7466 36.112C36.5333 36.112 36.3733 36.0533 36.2666 35.936C36.16 35.8187 36.1066 35.6533 36.1066 35.44V28.768C36.1066 28.5547 36.16 28.3947 36.2666 28.288C36.3733 28.1707 36.528 28.112 36.7306 28.112C36.9333 28.112 37.088 28.1707 37.1946 28.288C37.312 28.3947 37.3706 28.5547 37.3706 28.768V30.144L37.1946 29.952C37.4186 29.3333 37.7813 28.8693 38.2826 28.56C38.7946 28.24 39.3813 28.08 40.0426 28.08C40.6613 28.08 41.1733 28.192 41.5786 28.416C41.9946 28.64 42.304 28.9813 42.5066 29.44C42.7093 29.888 42.8106 30.4587 42.8106 31.152V35.44C42.8106 35.6533 42.752 35.8187 42.6346 35.936C42.528 36.0533 42.3733 36.112 42.1706 36.112C41.9573 36.112 41.792 36.0533 41.6746 35.936C41.568 35.8187 41.5146 35.6533 41.5146 35.44V31.232C41.5146 30.5067 41.3706 29.9787 41.0826 29.648C40.8053 29.3067 40.3573 29.136 39.7386 29.136C39.024 29.136 38.4533 29.36 38.0266 29.808C37.6106 30.2453 37.4026 30.832 37.4026 31.568V35.44C37.4026 35.888 37.184 36.112 36.7466 36.112ZM48.1604 36.144C47.467 36.144 46.859 35.9787 46.3364 35.648C45.8244 35.3173 45.4244 34.8533 45.1364 34.256C44.859 33.648 44.7204 32.9333 44.7204 32.112C44.7204 31.28 44.859 30.5653 45.1364 29.968C45.4244 29.36 45.8244 28.896 46.3364 28.576C46.859 28.2453 47.467 28.08 48.1604 28.08C48.8644 28.08 49.467 28.256 49.9684 28.608C50.4697 28.96 50.8057 29.4347 50.9764 30.032H50.8004V25.264C50.8004 25.0507 50.8537 24.8907 50.9604 24.784C51.0777 24.6667 51.243 24.608 51.4564 24.608C51.659 24.608 51.8137 24.6667 51.9204 24.784C52.0377 24.8907 52.0964 25.0507 52.0964 25.264V35.44C52.0964 35.6533 52.043 35.8187 51.9364 35.936C51.8297 36.0533 51.6697 36.112 51.4564 36.112C51.2537 36.112 51.0937 36.0533 50.9764 35.936C50.8697 35.8187 50.8164 35.6533 50.8164 35.44V33.92L50.9924 34.144C50.8217 34.752 50.4804 35.2373 49.9684 35.6C49.467 35.9627 48.8644 36.144 48.1604 36.144ZM48.4324 35.104C48.9124 35.104 49.3337 34.9867 49.6964 34.752C50.059 34.5173 50.3364 34.176 50.5284 33.728C50.731 33.28 50.8324 32.7413 50.8324 32.112C50.8324 31.1413 50.6137 30.4 50.1764 29.888C49.7497 29.376 49.1684 29.12 48.4324 29.12C47.9417 29.12 47.515 29.2373 47.1524 29.472C46.8004 29.696 46.523 30.032 46.3204 30.48C46.1284 30.9173 46.0324 31.4613 46.0324 32.112C46.0324 33.072 46.251 33.8133 46.6884 34.336C47.1257 34.848 47.707 35.104 48.4324 35.104ZM55.1685 36.08C54.9552 36.08 54.7952 36.0213 54.6885 35.904C54.5818 35.776 54.5285 35.6 54.5285 35.376V28.832C54.5285 28.608 54.5818 28.4373 54.6885 28.32C54.7952 28.2027 54.9552 28.144 55.1685 28.144C55.3712 28.144 55.5312 28.2027 55.6485 28.32C55.7658 28.4373 55.8245 28.608 55.8245 28.832V35.376C55.8245 35.6 55.7658 35.776 55.6485 35.904C55.5418 36.0213 55.3818 36.08 55.1685 36.08ZM55.1685 26.352C54.9018 26.352 54.6938 26.2827 54.5445 26.144C54.3952 25.9947 54.3205 25.7973 54.3205 25.552C54.3205 25.296 54.3952 25.104 54.5445 24.976C54.6938 24.8373 54.9018 24.768 55.1685 24.768C55.4458 24.768 55.6538 24.8373 55.7925 24.976C55.9418 25.104 56.0165 25.296 56.0165 25.552C56.0165 25.7973 55.9418 25.9947 55.7925 26.144C55.6538 26.2827 55.4458 26.352 55.1685 26.352Z" fill="#002055"/>
</svg>
